<svg width="445" height="410" viewBox="0 0 445 410" fill="none" xmlns="http://www.w3.org/2000/svg">
<g id="design" clip-path="url(#clip0_1_2)">
<path id="Vector" d="M174.168 64.9351C174.128 64.1665 173.98 63.4051 173.726 62.6681C173.128 60.972 171.974 59.4646 170.405 58.3309C168.836 57.1972 166.92 56.4865 164.893 56.286C164.848 56.2826 164.803 56.2826 164.758 56.286C164.699 56.2713 164.638 56.2599 164.577 56.2517C160.667 55.8353 156.701 56.1899 152.97 57.289C147.234 58.9584 142.202 62.3245 139.776 67.1334C138.795 65.9689 137.503 65.03 136.01 64.398C134.518 63.7659 132.871 63.4598 131.212 63.5061C129.073 63.629 127.031 64.3223 125.362 65.4915C123.694 66.6606 122.481 68.2488 121.889 70.0393C121.827 70.2581 121.847 70.4882 121.945 70.6967C122.043 70.9052 122.214 71.0814 122.434 71.2003C123.07 71.6715 123.825 72.0057 124.638 72.1758C126.392 72.4987 128.146 72.7941 129.916 73.062C133.361 73.5841 136.821 74.0077 140.298 74.3329C147.36 74.9922 154.467 75.2263 161.567 75.0336C163.929 74.9649 166.212 74.8962 168.377 73.9894C169.952 73.3146 171.298 72.294 172.28 71.0286C173.665 69.234 174.329 67.0917 174.168 64.9351Z" fill="#E6E6E6"/>
<path id="Vector_2" d="M1.87083 326.126C8.73449 333.198 16.1583 339.843 24.088 346.014L323.988 346.701C331.917 340.53 339.341 333.885 346.205 326.813L1.87083 326.126Z" fill="#3F3D56"/>
<path id="Vector_3" d="M153.322 259.62V330.077H210.089V259.62C210.09 259.113 209.904 258.62 209.559 258.212C209.213 257.804 208.726 257.503 208.169 257.353C207.907 257.278 207.632 257.241 207.356 257.243H156.063C155.704 257.243 155.348 257.304 155.015 257.423C154.683 257.542 154.381 257.717 154.126 257.938C153.871 258.158 153.669 258.421 153.531 258.709C153.393 258.998 153.322 259.308 153.322 259.62V259.62ZM175.476 283.829C175.491 282.44 176.136 281.113 177.271 280.135C178.406 279.158 179.938 278.609 181.536 278.609C183.133 278.609 184.666 279.158 185.801 280.135C186.936 281.113 187.581 282.44 187.596 283.829V292.004C187.587 293.397 186.945 294.73 185.81 295.713C184.674 296.695 183.138 297.247 181.536 297.247C179.934 297.247 178.397 296.695 177.262 295.713C176.126 294.73 175.484 293.397 175.476 292.004V283.829Z" fill="#2F2E41"/>
<path id="Vector_4" d="M153.148 327.823V334.618C153.149 334.969 153.31 335.307 153.596 335.556C153.881 335.806 154.268 335.947 154.673 335.95H208.738C209.143 335.948 209.531 335.807 209.817 335.558C210.103 335.308 210.263 334.97 210.263 334.618V327.823H153.148Z" fill="#3F3D56"/>
<path id="Vector_5" d="M64.0187 153.468V282.112C64.0202 283.751 64.7699 285.323 66.1031 286.482C67.4363 287.642 69.2441 288.293 71.1295 288.295H290.378C292.263 288.293 294.071 287.642 295.404 286.482C296.737 285.323 297.487 283.751 297.488 282.112V153.468C297.484 151.831 296.733 150.261 295.4 149.103C294.067 147.946 292.261 147.295 290.378 147.293H71.1295C69.2457 147.295 67.4397 147.946 66.1069 149.103C64.7741 150.261 64.0232 151.831 64.0187 153.468V153.468Z" fill="#3F3D56"/>
<path id="flash" d="M69.1622 155.069V280.525C69.1639 281.401 69.5649 282.24 70.2772 282.86C70.9895 283.479 71.9551 283.828 72.9625 283.829H288.552C289.56 283.828 290.525 283.479 291.238 282.86C291.95 282.24 292.351 281.401 292.353 280.525V155.069C292.353 154.192 291.952 153.351 291.24 152.73C290.528 152.109 289.561 151.76 288.552 151.758H72.9625C71.9539 151.76 70.9874 152.109 70.2749 152.73C69.5625 153.351 69.1623 154.192 69.1622 155.069V155.069Z" fill="#6C63FF"/>
<path id="Vector_6" d="M113.122 337.551C113.342 337.79 113.621 337.983 113.938 338.115C114.256 338.247 114.603 338.315 114.955 338.313H243.218C243.568 338.313 243.915 338.245 244.231 338.113C244.548 337.982 244.827 337.791 245.048 337.554C245.269 337.317 245.426 337.04 245.508 336.744C245.591 336.447 245.596 336.139 245.525 335.84L243.534 327.617C243.451 327.282 243.273 326.97 243.017 326.709C242.76 326.449 242.432 326.249 242.064 326.126C241.797 326.035 241.513 325.989 241.226 325.989H116.939C116.652 325.989 116.368 326.035 116.101 326.126C115.733 326.249 115.405 326.449 115.148 326.709C114.892 326.97 114.714 327.282 114.631 327.617L112.64 335.84C112.57 336.139 112.576 336.447 112.659 336.743C112.743 337.039 112.901 337.315 113.122 337.551Z" fill="#2F2E41"/>
<path id="Vector_7" d="M116.938 327.707C116.899 327.706 116.861 327.712 116.824 327.724C116.761 327.743 116.705 327.775 116.66 327.817C116.615 327.859 116.582 327.911 116.565 327.966L114.573 336.194C114.563 336.242 114.564 336.291 114.578 336.338C114.592 336.385 114.618 336.428 114.653 336.466L114.662 336.475C114.697 336.514 114.741 336.545 114.792 336.566C114.843 336.587 114.899 336.597 114.956 336.596H243.217C243.274 336.596 243.329 336.586 243.38 336.565C243.43 336.544 243.475 336.514 243.51 336.476C243.547 336.439 243.574 336.395 243.589 336.348C243.603 336.3 243.605 336.251 243.594 336.203L241.601 327.97C241.586 327.917 241.556 327.867 241.515 327.825C241.473 327.783 241.42 327.751 241.361 327.731C241.318 327.715 241.273 327.707 241.227 327.707H116.938Z" fill="white"/>
<path id="Vector_8" d="M79.8941 169.04H281.621C281.83 169.036 282.03 168.961 282.177 168.83C282.323 168.7 282.405 168.525 282.405 168.342C282.405 168.16 282.323 167.985 282.177 167.855C282.03 167.724 281.83 167.649 281.621 167.645H79.8941C79.6845 167.649 79.4849 167.724 79.3383 167.855C79.1917 167.985 79.1095 168.16 79.1095 168.342C79.1095 168.525 79.1917 168.7 79.3383 168.83C79.4849 168.961 79.6845 169.036 79.8941 169.04Z" fill="#3F3D56"/>
<path id="Vector_9" d="M267.889 164.083C270.485 164.083 272.59 162.213 272.59 159.905C272.59 157.597 270.485 155.726 267.889 155.726C265.293 155.726 263.188 157.597 263.188 159.905C263.188 162.213 265.293 164.083 267.889 164.083Z" fill="#3F3D56"/>
<path id="Vector_10" d="M251.648 164.083C254.245 164.083 256.349 162.213 256.349 159.905C256.349 157.597 254.245 155.726 251.648 155.726C249.052 155.726 246.947 157.597 246.947 159.905C246.947 162.213 249.052 164.083 251.648 164.083Z" fill="#3F3D56"/>
<path id="Vector_11" d="M235.407 164.083C238.004 164.083 240.108 162.213 240.108 159.905C240.108 157.597 238.004 155.726 235.407 155.726C232.811 155.726 230.706 157.597 230.706 159.905C230.706 162.213 232.811 164.083 235.407 164.083Z" fill="#3F3D56"/>
<path id="Vector_12" d="M88.8127 157.522C88.8121 157.62 88.834 157.718 88.877 157.81C88.92 157.901 88.9833 157.984 89.0632 158.055C89.1432 158.125 89.2383 158.181 89.3431 158.219C89.4479 158.257 89.5603 158.277 89.6739 158.277H101.209C101.437 158.273 101.654 158.191 101.813 158.049C101.973 157.907 102.062 157.716 102.062 157.518C102.062 157.32 101.973 157.129 101.813 156.988C101.654 156.846 101.437 156.764 101.209 156.759H89.6739C89.4436 156.761 89.2238 156.843 89.0624 156.986C88.9011 157.129 88.8113 157.321 88.8127 157.522V157.522Z" fill="#3F3D56"/>
<path id="Vector_13" d="M88.8127 160.373C88.8121 160.471 88.834 160.569 88.877 160.661C88.92 160.752 88.9833 160.835 89.0632 160.906C89.1432 160.976 89.2383 161.031 89.3431 161.07C89.4478 161.108 89.5603 161.128 89.6739 161.128H101.209C101.437 161.124 101.654 161.042 101.814 160.9C101.974 160.758 102.063 160.568 102.063 160.369C102.063 160.171 101.974 159.98 101.814 159.838C101.654 159.696 101.437 159.614 101.209 159.61H89.6739C89.4436 159.612 89.2238 159.694 89.0624 159.837C88.9011 159.98 88.8113 160.172 88.8127 160.373V160.373Z" fill="#3F3D56"/>
<path id="Vector_14" d="M88.8127 163.217C88.8113 163.417 88.9011 163.609 89.0624 163.752C89.2238 163.895 89.4436 163.977 89.6739 163.979H101.209C101.437 163.975 101.654 163.893 101.813 163.751C101.973 163.609 102.062 163.418 102.062 163.22C102.062 163.022 101.973 162.831 101.813 162.689C101.654 162.548 101.437 162.466 101.209 162.461H89.6739C89.5603 162.461 89.4478 162.481 89.3431 162.52C89.2383 162.558 89.1432 162.614 89.0632 162.684C88.9833 162.754 88.92 162.837 88.877 162.928C88.834 163.02 88.8121 163.118 88.8127 163.217Z" fill="#3F3D56"/>
<path id="monitor" d="M251.564 190.332H109.951C108.091 190.334 106.307 190.977 104.992 192.121C103.676 193.265 102.936 194.816 102.934 196.433V256.363C102.936 257.981 103.676 259.532 104.992 260.676C106.307 261.819 108.091 262.463 109.951 262.465H251.564C253.424 262.463 255.208 261.819 256.523 260.676C257.839 259.532 258.578 257.981 258.581 256.363V196.433C258.578 194.816 257.838 193.265 256.523 192.121C255.207 190.977 253.424 190.334 251.564 190.332ZM257 196.433V213.918H207.225V191.706H251.564C253.005 191.707 254.387 192.206 255.406 193.092C256.425 193.978 256.999 195.18 257 196.433H257ZM155.87 237.505V215.292H205.645V237.505H155.87ZM205.645 238.879V261.091H155.87V238.879H205.645ZM154.29 237.505H104.514V215.292H154.29V237.505ZM155.87 213.918V191.706H205.645V213.918H155.87ZM207.225 215.292H257V237.505H207.225V215.292ZM109.951 191.706H154.29V213.918H104.514V196.433C104.516 195.18 105.089 193.978 106.109 193.092C107.128 192.206 108.51 191.708 109.951 191.706V191.706ZM104.514 256.363V238.879H154.29V261.091H109.951C108.51 261.089 107.128 260.591 106.108 259.704C105.089 258.818 104.516 257.617 104.514 256.363V256.363ZM251.564 261.091H207.225V238.879H257V256.363C256.999 257.617 256.426 258.818 255.406 259.705C254.387 260.591 253.005 261.089 251.564 261.091H251.564Z" fill="#3F3D56"/>
<path id="Vector_15" d="M173.56 205.547C172.303 203.74 170.814 201.811 168.482 201.221C165.781 200.537 163.007 201.895 160.654 203.234C153.616 207.241 146.839 211.583 140.353 216.24L140.36 216.31L155.509 215.402C159.157 215.183 162.931 214.934 166.155 213.433C167.379 212.864 168.571 212.103 169.957 212.05C171.68 211.984 173.182 213.03 174.362 214.123C181.344 220.587 183.364 230.473 191.197 236.152C186.258 225.561 180.36 215.328 173.56 205.547V205.547Z" fill="white"/>
<path id="Vector_16" d="M216.475 260.376C215.703 259.528 215.387 259.33 214.626 258.474C208.425 251.501 202.596 244.292 197.141 236.848C193.435 231.792 189.913 226.639 186.575 221.388C184.985 218.892 183.44 216.377 181.937 213.842C180.772 211.876 179.632 209.899 178.519 207.909C178.2 207.341 177.891 206.77 177.583 206.198C176.857 204.853 176.145 203.501 175.381 202.174C174.59 200.581 173.381 199.172 171.849 198.06C171.121 197.578 170.25 197.287 169.339 197.22C168.055 197.226 166.798 197.54 165.705 198.125C157.432 201.907 149.71 206.537 142.705 211.916C135.688 217.274 129.417 223.328 124.018 229.953C123.853 230.158 123.462 229.962 123.629 229.755C124.285 228.948 124.955 228.15 125.637 227.36C134.123 217.547 144.528 209.108 156.377 202.429C158.37 201.306 160.401 200.235 162.47 199.217C163.512 198.704 164.559 198.197 165.624 197.722C166.645 197.201 167.789 196.893 168.969 196.82C173.028 196.766 175.13 200.762 176.573 203.452C177.027 204.298 177.486 205.142 177.951 205.983C179.707 209.176 181.53 212.341 183.422 215.476C184.589 217.411 185.781 219.336 187 221.249C190.791 227.206 194.821 233.042 199.089 238.758C204.743 246.33 210.352 253.019 216.793 260.099C216.97 260.295 216.654 260.574 216.475 260.376Z" fill="white"/>
<path id="Vector_17" d="M142.303 209.943C142.068 209.714 141.833 209.486 141.596 209.257C139.724 207.457 137.716 205.678 135.146 204.647C133.92 204.139 132.582 203.869 131.225 203.856C129.825 203.89 128.444 204.152 127.154 204.628C126.541 204.841 125.942 205.083 125.352 205.34C124.677 205.635 124.015 205.95 123.355 206.268C122.118 206.863 120.896 207.485 119.69 208.133C117.291 209.422 114.967 210.809 112.719 212.295C111.553 213.066 110.411 213.862 109.294 214.683C108.254 215.446 107.236 216.229 106.238 217.033C106.025 217.204 105.707 216.927 105.92 216.756C106.183 216.543 106.449 216.331 106.715 216.122C107.466 215.532 108.229 214.953 109.004 214.385C110.417 213.348 111.867 212.351 113.354 211.394C115.666 209.905 118.057 208.517 120.528 207.23C121.763 206.588 123.015 205.972 124.284 205.383C124.667 205.206 125.054 205.032 125.446 204.867C126.336 204.477 127.26 204.15 128.21 203.889C129.556 203.511 130.98 203.389 132.385 203.533C133.741 203.704 135.048 204.097 136.236 204.691C138.76 205.918 140.717 207.814 142.622 209.665C142.814 209.853 142.497 210.131 142.303 209.943Z" fill="white"/>
<path id="Vector_18" d="M194.011 228.594L200.058 226.671L203.06 225.716C204.03 225.376 205.02 225.08 206.024 224.828C206.903 224.61 207.836 224.62 208.707 224.858C209.485 225.108 210.196 225.492 210.8 225.986C211.417 226.48 211.99 227.012 212.516 227.58C213.17 228.263 213.814 228.953 214.461 229.641C217.131 232.48 219.783 235.332 222.419 238.195C225.053 241.059 227.671 243.935 230.271 246.823C232.877 249.718 235.465 252.625 238.035 255.545C238.35 255.902 238.665 256.26 238.979 256.618C239.153 256.816 239.544 256.621 239.368 256.42C236.779 253.472 234.172 250.535 231.546 247.611C228.914 244.679 226.265 241.76 223.596 238.853C220.928 235.947 218.242 233.053 215.538 230.171C214.864 229.453 214.19 228.736 213.514 228.02C212.944 227.416 212.38 226.805 211.754 226.243C211.222 225.685 210.568 225.224 209.831 224.886C209.093 224.548 208.286 224.34 207.456 224.273C206.45 224.304 205.459 224.493 204.532 224.832C203.521 225.15 202.512 225.474 201.503 225.795L195.413 227.732L193.891 228.216C193.621 228.302 193.737 228.681 194.011 228.594V228.594Z" fill="white"/>
<path id="Vector_19" d="M134.35 206.911C132.796 206.246 131.066 205.951 129.338 206.059C127.611 206.166 125.947 206.672 124.518 207.523C129.904 208.331 135.231 209.412 140.473 210.761C138.296 209.652 136.594 207.914 134.35 206.911Z" fill="white"/>
<path id="Vector_20" d="M124.487 207.518L123.896 207.935C124.096 207.789 124.304 207.652 124.518 207.523L124.487 207.518Z" fill="white"/>
<path id="Vector_21" d="M210.572 228.613C210.043 227.935 209.305 227.399 208.443 227.068L207.612 227.096C213.94 236.818 222.486 245.314 232.726 252.061L210.572 228.613Z" fill="white"/>
<path id="Vector_22" d="M206.683 217.968C209.327 217.968 211.47 216.105 211.47 213.806C211.47 211.507 209.327 209.644 206.683 209.644C204.04 209.644 201.896 211.507 201.896 213.806C201.896 216.105 204.04 217.968 206.683 217.968Z" fill="white"/>
<path id="Vector_23" d="M276.151 260.06C277.094 260.059 277.997 259.733 278.664 259.154C279.33 258.574 279.705 257.788 279.707 256.969V193.08C279.707 192.26 279.332 191.474 278.665 190.894C277.999 190.314 277.094 189.989 276.151 189.989C275.208 189.989 274.304 190.314 273.637 190.894C272.971 191.474 272.596 192.26 272.596 193.08V256.969C272.597 257.788 272.972 258.574 273.639 259.154C274.305 259.733 275.209 260.059 276.151 260.06V260.06Z" fill="#3F3D56"/>
<path id="Vector_24" d="M276.151 260.06C277.094 260.059 277.997 259.733 278.664 259.154C279.33 258.574 279.705 257.788 279.707 256.969V243.422C279.297 242.936 278.762 242.541 278.144 242.269C277.527 241.997 276.844 241.855 276.151 241.855C275.459 241.855 274.776 241.997 274.159 242.269C273.541 242.541 273.006 242.936 272.596 243.422V256.969C272.597 257.788 272.972 258.574 273.639 259.154C274.305 259.733 275.209 260.059 276.151 260.06V260.06Z" fill="#2F2E41"/>
<path id="Vector_25" d="M276.151 247.008C277.165 247.006 278.137 246.656 278.853 246.033C279.57 245.409 279.974 244.564 279.975 243.683V229.113C279.535 228.591 278.959 228.167 278.295 227.874C277.63 227.581 276.896 227.429 276.151 227.429C275.407 227.429 274.672 227.581 274.008 227.874C273.344 228.167 272.768 228.591 272.328 229.113V243.683C272.329 244.564 272.733 245.409 273.449 246.033C274.166 246.656 275.138 247.006 276.151 247.008V247.008Z" fill="#6C63FF"/>
<path id="Vector_26" d="M276.151 244.359C276.891 244.358 277.599 244.102 278.122 243.647C278.645 243.193 278.939 242.576 278.94 241.934V231.307C278.619 230.926 278.199 230.616 277.715 230.403C277.23 230.189 276.695 230.078 276.151 230.078C275.608 230.078 275.073 230.189 274.588 230.403C274.104 230.616 273.684 230.926 273.362 231.307V241.934C273.364 242.576 273.658 243.193 274.181 243.647C274.703 244.102 275.412 244.358 276.151 244.359V244.359Z" fill="#3F3D56"/>
<path id="Vector_27" d="M166.469 331.835C165.845 331.348 165.468 330.667 165.421 329.94C165.374 329.212 165.661 328.498 166.219 327.954L197.282 297.733C197.558 297.464 197.893 297.245 198.267 297.089C198.641 296.932 199.047 296.841 199.461 296.821C199.875 296.801 200.29 296.851 200.682 296.971C201.074 297.09 201.435 297.275 201.744 297.515C202.054 297.756 202.305 298.047 202.486 298.372C202.666 298.697 202.77 299.05 202.793 299.41C202.817 299.771 202.758 300.131 202.621 300.472C202.484 300.813 202.271 301.126 201.995 301.396L170.932 331.617C170.373 332.159 169.589 332.487 168.752 332.528C167.916 332.569 167.095 332.319 166.469 331.835Z" fill="#6C63FF"/>
<path id="Vector_28" d="M424.156 381.593C424.156 386.601 422.797 390.434 422.963 393.498C413.644 397.035 404.062 400.023 394.283 402.443C393.177 402.717 392.071 402.978 390.957 403.239C384.928 387.192 378.892 372.497 376.514 370.938C371.07 367.386 368.344 382.081 368.344 378.529C368.344 374.977 371.07 374.977 364.268 370.244C357.457 365.511 361.542 344.208 361.542 344.208L352.013 322.904L362.672 288.926L376.514 244.788H390.127C390.127 244.788 390.53 245.042 391.201 245.516C394.607 247.935 404.878 256.013 403.74 264.91C403.4 267.561 404.159 275.269 405.478 285.533C409.492 316.522 418.712 350.212 418.712 359.101C418.712 370.938 424.156 374.489 424.156 381.593Z" fill="#E6E6E6"/>
<path id="Vector_29" d="M412.741 285.417C412.725 285.382 412.717 285.355 412.701 285.327C412.396 284.613 412.04 283.915 411.635 283.239C409.336 279.481 411.769 273.711 409.178 267.335C404.99 257.003 399.886 250.91 392.404 245.448C392.183 245.283 391.962 245.125 391.733 244.961L391.725 244.954C386.731 241.388 380.711 238.056 373.237 233.907C371.68 233.042 370.053 232.142 368.362 231.194C366.181 229.978 366.3 225.924 366.426 221.638C366.568 216.877 366.719 211.944 364.032 208.867L363.858 208.668L363.582 208.606C354.372 207.022 344.978 206.392 335.597 206.73H335.589C331.606 206.859 327.651 207.363 323.793 208.235C323.509 208.303 323.225 208.372 322.948 208.455C322.735 208.503 322.521 208.565 322.308 208.626L322.134 208.681L322 208.791C319.401 211.051 318.8 215.105 318.516 219.329V219.336C318.46 220.106 318.413 220.875 318.373 221.645C318.152 225.753 317.947 229.634 316.209 231.317C312.332 235.136 307.645 238.271 302.406 240.55C294.244 244.054 287.789 243.944 287.694 243.944L286.944 243.923L286.873 244.569C281.453 253.548 281.658 276.713 281.492 301.519C281.484 302.9 281.474 304.288 281.461 305.683C281.366 317.237 281.113 328.992 280.118 339.702C279.683 344.304 279.122 348.708 278.371 352.823C274.721 372.862 258.185 356.223 250.276 369.558C250.536 370.869 250.974 372.149 251.58 373.37C252.488 373.837 253.421 374.291 254.345 374.744C258.446 376.73 262.622 378.582 266.876 380.302C267.113 380.398 267.35 380.494 267.587 380.584C275.388 383.722 283.429 386.389 291.653 388.566C293.257 388.992 294.86 389.398 296.48 389.782C310.807 393.221 325.56 395.143 340.417 395.505C340.477 395.499 340.538 395.497 340.598 395.498C358.169 395.075 375.625 392.888 392.617 388.978C392.854 388.924 393.091 388.869 393.329 388.814C394.443 388.553 395.549 388.291 396.655 388.017C406.434 385.597 416.016 382.609 425.335 379.072C425.344 379.374 425.379 379.675 425.438 379.972C425.446 380.069 425.461 380.166 425.485 380.261C425.501 380.151 425.517 380.041 425.524 379.931C425.572 379.608 425.611 379.278 425.651 378.949C430.486 337.95 420.444 303.141 412.741 285.417Z" fill="#3F3D56"/>
<path id="Vector_30" d="M304.157 184.934C308.979 192.601 316.66 198.612 325.936 201.976C335.212 205.34 345.529 205.858 355.187 203.442C364.846 201.027 373.271 195.824 379.075 188.69C384.879 181.555 387.715 172.915 387.116 164.192C386.518 155.468 382.521 147.182 375.783 140.698C369.045 134.214 359.969 129.919 350.048 128.519C340.127 127.119 329.954 128.699 321.204 132.998C312.454 137.297 305.649 144.059 301.909 152.17C301.707 152.61 301.524 153.05 301.342 153.508C299.228 158.621 298.385 164.067 298.871 169.484C299.356 174.901 301.157 180.167 304.157 184.934V184.934Z" fill="#FFB6B6"/>
<path id="Vector_31" d="M297.799 153.508C299.702 148.878 298.872 151.29 300.795 146.677C299.54 150.762 301.524 153.05 301.342 153.508H354.007V126.888C338.578 121.571 323.494 117.047 314.382 126.888C306.262 126.889 298.476 129.693 292.734 134.685C286.993 139.678 283.767 146.448 283.767 153.508H297.799Z" fill="#2F2E41"/>
<path id="Vector_32" d="M316.467 227.505C316.508 227.012 316.569 226.501 316.65 226.008C317.217 222.382 318.634 218.896 320.072 215.445C321.59 211.73 323.129 207.998 324.668 204.283C322.686 211.026 323.291 218.148 326.389 224.565C335.278 218.544 329.669 204.776 341.292 204.776C369.234 204.776 397.986 185.075 397.986 160.762C397.986 136.466 385.999 118.297 358.057 118.297C330.094 118.297 307.416 129.423 306.87 153.719C341.292 160.762 309.968 225.04 316.467 227.505Z" fill="#2F2E41"/>
<path id="Vector_33" d="M394.495 157.038C412.387 157.038 426.892 144.426 426.892 128.869C426.892 113.311 412.387 100.7 394.495 100.7C376.602 100.7 362.098 113.311 362.098 128.869C362.098 144.426 376.602 157.038 394.495 157.038Z" fill="#2F2E41"/>
<path id="Vector_34" d="M461.574 288.852C461.464 290.301 461.366 291.845 461.282 293.482C459.607 324.321 461.053 365.835 449.763 388.361C447.234 389.563 444.68 390.712 442.099 391.809C441.996 391.85 441.901 391.892 441.814 391.933C441.119 392.228 440.424 392.517 439.729 392.792C439.703 392.811 439.674 392.825 439.642 392.833C432.007 395.97 424.138 398.657 416.089 400.877C415.102 401.152 414.106 401.413 413.111 401.674C412.897 401.729 412.684 401.784 412.471 401.839C397.307 405.738 381.63 407.929 365.824 408.359C365.003 408.379 364.197 408.393 363.414 408.407C363.138 408.413 362.869 408.42 362.601 408.42C361.716 408.427 360.839 408.434 359.954 408.434C358.168 408.434 356.391 408.411 354.621 408.365C339.764 408.003 325.011 406.082 310.684 402.643C309.065 402.258 307.461 401.853 305.857 401.427C297.634 399.25 289.592 396.583 281.791 393.444C281.554 393.355 281.317 393.259 281.08 393.163C276.829 391.445 272.652 389.593 268.549 387.605C267.625 387.152 266.692 386.698 265.784 386.231C265.178 385.009 264.74 383.729 264.48 382.418C262.687 374.923 261.249 379.979 260.222 364.385C259.281 350.089 258.681 335.752 258.46 327.556C258.389 325.372 258.365 323.62 258.357 322.425C259.195 317.217 272.658 311.309 292.291 305.697C294.148 305.168 296.068 304.639 298.035 304.117C303.344 302.695 309.017 301.3 314.943 299.953C330.033 296.519 346.791 293.365 363.422 290.762C371.631 289.484 379.809 288.337 387.749 287.361C401.678 285.644 414.857 284.455 426.131 283.968C427.214 283.919 428.273 283.878 429.315 283.851C430.437 283.81 431.535 283.782 432.61 283.761C448.854 283.452 459.947 284.922 461.574 288.852Z" fill="#2F2E41"/>
<path id="girlhand" d="M175.32 326.149C176.563 327.513 178.136 328.622 179.926 329.4C181.716 330.177 183.68 330.604 185.68 330.651C187.681 330.697 189.668 330.361 191.503 329.667C193.338 328.973 194.976 327.938 196.301 326.634L241.295 342.702L236.439 321.133L194.457 309.182C191.79 307.392 188.461 306.514 185.1 306.715C181.739 306.917 178.58 308.183 176.221 310.275C173.862 312.366 172.467 315.137 172.301 318.063C172.135 320.989 173.209 323.866 175.32 326.149V326.149Z" fill="#FFB6B6"/>
<path id="Vector_35" d="M324.989 236.334L324.742 236.311L298.504 237.967C295.173 238.178 291.932 239.001 288.995 240.384C286.058 241.767 283.493 243.677 281.47 245.988C280.529 247.059 279.715 248.209 279.04 249.421L279.033 249.425C276.772 253.449 276.09 258.007 277.093 262.4L289.445 316.467L259.724 314.119L248.874 315.732L236.071 311.24L209.8 311.629L209.191 313.38L203.68 329.265L203.247 330.513L243.364 352.494L254.994 349.418L260.474 353.077L260.737 353.083L271.602 353.27L317.939 354.06L330.605 334.549L332.584 331.49C347.294 302.837 350.923 282.834 349.772 269.054C349.168 261.773 347.232 256.238 344.889 252.067C337.642 239.177 325.499 236.443 324.989 236.334Z" fill="#3F3D56"/>
<path id="Vector_36" d="M402.958 157.154C396.815 155.953 391.119 153.423 386.399 149.798C381.679 146.173 378.088 141.571 375.959 136.419C374.058 131.625 373.341 126.361 370.15 122.095C375.01 116.291 378.908 109.922 381.728 103.175C382.82 100.563 385.377 95.8207 381.043 94.3837C377.59 93.2389 373.667 96.002 371.62 98.1823C370.065 99.8345 368.95 101.765 368.355 103.837C367.649 101.126 366.943 98.4163 366.237 95.7061C366.147 95.446 365.945 95.2261 365.674 95.092C365.402 94.958 365.082 94.9201 364.779 94.9863C358.994 95.8438 354.799 100.501 354.07 105.407C353.672 107.932 354.333 110.498 355.932 112.635C357.79 115.093 360.511 116.855 363.101 118.687C365.855 120.635 368.189 122.71 369.67 125.559C371.208 128.52 371.901 131.76 372.922 134.869C374.86 140.841 378.614 146.247 383.789 150.519C388.965 154.79 395.369 157.769 402.328 159.141C403.815 159.423 404.45 157.437 402.958 157.154ZM370.291 107.887C370.105 105.298 370.892 102.726 372.533 100.56C373.354 99.462 374.383 98.4925 375.577 97.6929C376.709 96.9412 378.378 95.9456 379.875 96.2217C381.817 96.5799 381.036 98.4646 380.623 99.6012C380.079 101.101 379.481 102.584 378.829 104.052C377.558 106.902 376.083 109.68 374.412 112.369C373.545 113.769 372.618 115.14 371.65 116.487C370.982 113.925 370.315 111.363 369.648 108.801C369.858 108.734 370.036 108.608 370.153 108.442C370.27 108.275 370.318 108.08 370.291 107.887V107.887ZM356.449 108.297C356.061 105.956 356.624 103.57 358.039 101.551C359.454 99.5309 361.635 98.0029 364.205 97.2292C366.086 104.452 367.968 111.674 369.849 118.897C369.461 119.395 369.06 119.885 368.659 120.375C368.554 120.27 368.458 120.161 368.348 120.058C364.402 116.324 357.521 113.779 356.449 108.297V108.297Z" fill="#6C63FF"/>
</g>
<defs>
<clipPath id="clip0_1_2">
<rect width="445" height="410" fill="white"/>
</clipPath>
</defs>
</svg>
