<svg width="584" height="510" viewBox="0 0 584 510" fill="none" xmlns="http://www.w3.org/2000/svg">
<g id="design" clip-path="url(#clip0_1_2)">
<path id="Vector" d="M228.572 80.7729C228.519 79.8168 228.324 78.8698 227.991 77.953C227.206 75.8432 225.691 73.9682 223.632 72.5579C221.573 71.1477 219.059 70.2637 216.399 70.0143C216.34 70.0101 216.281 70.0101 216.222 70.0143C216.144 69.996 216.064 69.9818 215.984 69.9716C210.854 69.4537 205.647 69.8947 200.752 71.2619C193.225 73.3385 186.62 77.5256 183.436 83.5074C182.149 82.0589 180.453 80.891 178.494 80.1048C176.536 79.3186 174.374 78.9378 172.197 78.9954C169.391 79.1483 166.71 80.0107 164.521 81.465C162.331 82.9193 160.739 84.8948 159.962 87.1221C159.881 87.3942 159.907 87.6804 160.035 87.9397C160.164 88.1991 160.388 88.4184 160.677 88.5662C161.512 89.1524 162.503 89.5681 163.57 89.7796C165.872 90.1813 168.174 90.5487 170.496 90.882C175.017 91.5314 179.559 92.0584 184.121 92.4629C193.39 93.2829 202.716 93.5741 212.033 93.3345C215.134 93.249 218.13 93.1636 220.971 92.0356C223.038 91.1962 224.804 89.9267 226.093 88.3526C227.911 86.1204 228.782 83.4555 228.572 80.7729Z" fill="#E6E6E6"/>
<path id="Vector_2" d="M2.4552 405.669C11.4628 414.466 21.2055 422.732 31.6121 430.408L425.188 431.263C435.595 423.587 445.338 415.32 454.345 406.524L2.4552 405.669Z" fill="#3F3D56"/>
<path id="Vector_3" d="M201.213 322.942V410.583H275.713V322.942C275.714 322.312 275.47 321.698 275.016 321.19C274.563 320.683 273.924 320.308 273.193 320.122C272.849 320.028 272.488 319.982 272.125 319.985H204.811C204.34 319.985 203.872 320.061 203.436 320.209C203 320.357 202.603 320.575 202.269 320.849C201.935 321.124 201.669 321.45 201.488 321.809C201.307 322.168 201.214 322.553 201.213 322.942V322.942ZM230.287 353.056C230.307 351.328 231.154 349.677 232.643 348.461C234.132 347.245 236.144 346.563 238.24 346.563C240.336 346.563 242.348 347.245 243.837 348.461C245.327 349.677 246.173 351.328 246.193 353.056V363.225C246.182 364.957 245.34 366.616 243.849 367.838C242.359 369.06 240.342 369.746 238.24 369.746C236.138 369.746 234.121 369.06 232.631 367.838C231.141 366.616 230.298 364.957 230.287 363.225V353.056Z" fill="#2F2E41"/>
<path id="Vector_4" d="M200.985 407.78V416.232C200.987 416.669 201.198 417.089 201.573 417.399C201.947 417.71 202.455 417.886 202.986 417.889H273.94C274.471 417.887 274.98 417.712 275.355 417.401C275.73 417.09 275.941 416.67 275.941 416.232V407.78H200.985Z" fill="#3F3D56"/>
<path id="Vector_5" d="M84.0156 190.9V350.92C84.0176 352.959 85.0014 354.914 86.751 356.356C88.5007 357.798 90.8731 358.609 93.3475 358.61H381.08C383.554 358.609 385.927 357.798 387.676 356.356C389.426 354.914 390.41 352.959 390.412 350.92V190.9C390.406 188.862 389.42 186.91 387.671 185.47C385.922 184.03 383.552 183.22 381.08 183.218H93.3475C90.8753 183.22 88.5051 184.03 86.756 185.47C85.0069 186.91 84.0215 188.862 84.0156 190.9V190.9Z" fill="#3F3D56"/>
<path id="flash" d="M90.7657 192.891V348.946C90.7679 350.035 91.2941 351.079 92.229 351.85C93.1638 352.62 94.431 353.054 95.753 353.056H378.685C380.007 353.054 381.274 352.62 382.209 351.85C383.143 351.079 383.67 350.035 383.672 348.946V192.891C383.672 191.8 383.147 190.754 382.212 189.981C381.277 189.209 380.008 188.774 378.685 188.772H95.753C94.4294 188.774 93.1609 189.209 92.2259 189.981C91.291 190.754 90.7658 191.8 90.7657 192.891V192.891Z" fill="#6C63FF"/>
<path id="Vector_6" d="M148.457 419.88C148.745 420.178 149.111 420.418 149.528 420.582C149.945 420.746 150.401 420.831 150.863 420.829H319.189C319.649 420.828 320.104 420.743 320.519 420.58C320.934 420.417 321.301 420.179 321.591 419.884C321.88 419.59 322.087 419.245 322.195 418.877C322.304 418.508 322.311 418.124 322.216 417.753L319.604 407.524C319.495 407.107 319.262 406.718 318.925 406.395C318.588 406.071 318.159 405.821 317.675 405.669C317.325 405.556 316.952 405.498 316.576 405.499H153.465C153.089 405.498 152.716 405.556 152.366 405.669C151.883 405.821 151.453 406.071 151.116 406.395C150.779 406.718 150.546 407.107 150.438 407.524L147.825 417.753C147.732 418.124 147.74 418.507 147.85 418.875C147.959 419.243 148.167 419.587 148.457 419.88Z" fill="#2F2E41"/>
<path id="Vector_7" d="M153.465 407.635C153.414 407.635 153.363 407.642 153.315 407.657C153.233 407.68 153.159 407.72 153.1 407.772C153.04 407.825 152.998 407.889 152.976 407.958L150.361 418.192C150.347 418.252 150.35 418.313 150.368 418.371C150.386 418.43 150.42 418.484 150.467 418.53L150.478 418.542C150.523 418.591 150.582 418.63 150.649 418.656C150.715 418.682 150.789 418.694 150.863 418.692H319.189C319.262 418.693 319.335 418.68 319.402 418.654C319.468 418.628 319.527 418.59 319.573 418.543C319.622 418.497 319.657 418.443 319.676 418.384C319.695 418.325 319.697 418.263 319.682 418.203L317.067 407.963C317.048 407.896 317.009 407.834 316.954 407.782C316.899 407.73 316.83 407.69 316.752 407.665C316.696 407.646 316.636 407.635 316.576 407.635H153.465Z" fill="white"/>
<path id="Vector_8" d="M104.85 210.269H369.588C369.863 210.264 370.125 210.171 370.317 210.008C370.51 209.846 370.617 209.628 370.617 209.402C370.617 209.175 370.51 208.957 370.317 208.795C370.125 208.633 369.863 208.539 369.588 208.534H104.85C104.575 208.539 104.313 208.633 104.12 208.795C103.928 208.957 103.82 209.175 103.82 209.402C103.82 209.628 103.928 209.846 104.12 210.008C104.313 210.171 104.575 210.264 104.85 210.269Z" fill="#3F3D56"/>
<path id="Vector_9" d="M351.567 204.104C354.974 204.104 357.737 201.777 357.737 198.906C357.737 196.035 354.974 193.708 351.567 193.708C348.159 193.708 345.397 196.035 345.397 198.906C345.397 201.777 348.159 204.104 351.567 204.104Z" fill="#3F3D56"/>
<path id="Vector_10" d="M330.253 204.104C333.66 204.104 336.423 201.777 336.423 198.906C336.423 196.035 333.66 193.708 330.253 193.708C326.845 193.708 324.083 196.035 324.083 198.906C324.083 201.777 326.845 204.104 330.253 204.104Z" fill="#3F3D56"/>
<path id="Vector_11" d="M308.939 204.104C312.346 204.104 315.109 201.777 315.109 198.906C315.109 196.035 312.346 193.708 308.939 193.708C305.531 193.708 302.769 196.035 302.769 198.906C302.769 201.777 305.531 204.104 308.939 204.104Z" fill="#3F3D56"/>
<path id="Vector_12" d="M116.554 195.941C116.553 196.064 116.582 196.186 116.639 196.3C116.695 196.414 116.778 196.517 116.883 196.604C116.988 196.692 117.113 196.761 117.25 196.809C117.388 196.856 117.535 196.881 117.684 196.881H132.823C133.122 196.876 133.407 196.774 133.616 196.597C133.825 196.421 133.942 196.184 133.942 195.937C133.942 195.691 133.825 195.454 133.616 195.277C133.407 195.101 133.122 194.999 132.823 194.993H117.684C117.382 194.996 117.094 195.097 116.882 195.275C116.67 195.453 116.552 195.692 116.554 195.941V195.941Z" fill="#3F3D56"/>
<path id="Vector_13" d="M116.554 199.488C116.553 199.611 116.582 199.733 116.639 199.846C116.695 199.96 116.778 200.063 116.883 200.151C116.988 200.238 117.113 200.307 117.25 200.355C117.388 200.403 117.535 200.427 117.684 200.428H132.823C133.122 200.422 133.407 200.32 133.617 200.144C133.826 199.967 133.943 199.73 133.943 199.484C133.943 199.237 133.826 199 133.617 198.823C133.407 198.647 133.122 198.545 132.823 198.539H117.684C117.382 198.542 117.094 198.644 116.882 198.821C116.67 198.999 116.552 199.239 116.554 199.488V199.488Z" fill="#3F3D56"/>
<path id="Vector_14" d="M116.554 203.026C116.552 203.275 116.67 203.514 116.882 203.692C117.094 203.87 117.382 203.971 117.684 203.974H132.823C133.122 203.968 133.407 203.866 133.616 203.69C133.825 203.513 133.942 203.277 133.942 203.03C133.942 202.783 133.825 202.546 133.616 202.37C133.407 202.193 133.122 202.091 132.823 202.086H117.684C117.535 202.086 117.388 202.111 117.25 202.158C117.113 202.206 116.988 202.275 116.883 202.363C116.778 202.45 116.695 202.553 116.639 202.667C116.582 202.781 116.553 202.903 116.554 203.026Z" fill="#3F3D56"/>
<path id="monitor" d="M330.142 236.755H144.295C141.854 236.757 139.513 237.557 137.787 238.98C136.061 240.403 135.089 242.332 135.087 244.344V318.891C135.089 320.903 136.06 322.832 137.787 324.255C139.513 325.678 141.854 326.478 144.295 326.481H330.142C332.583 326.478 334.924 325.678 336.65 324.255C338.377 322.832 339.348 320.903 339.351 318.891V244.344C339.348 242.332 338.377 240.403 336.65 238.98C334.924 237.557 332.583 236.757 330.142 236.755ZM337.277 244.344V266.093H271.954V238.464H330.142C332.033 238.465 333.847 239.086 335.185 240.188C336.522 241.29 337.275 242.785 337.277 244.344H337.277ZM204.557 295.433V267.802H269.88V295.433H204.557ZM269.88 297.142V324.771H204.557V297.142H269.88ZM202.483 295.433H137.16V267.802H202.483V295.433ZM204.557 266.093V238.464H269.88V266.093H204.557ZM271.954 267.802H337.277V295.433H271.954V267.802ZM144.295 238.464H202.483V266.093H137.16V244.344C137.163 242.785 137.915 241.29 139.253 240.188C140.59 239.086 142.404 238.465 144.295 238.464V238.464ZM137.16 318.891V297.142H202.483V324.771H144.295C142.404 324.77 140.59 324.15 139.252 323.047C137.915 321.945 137.162 320.45 137.16 318.891V318.891ZM330.142 324.771H271.954V297.142H337.277V318.891C337.275 320.45 336.523 321.945 335.185 323.047C333.847 324.15 332.034 324.77 330.142 324.771H330.142Z" fill="#3F3D56"/>
<path id="Vector_15" d="M227.773 255.681C226.124 253.433 224.17 251.033 221.109 250.299C217.565 249.449 213.924 251.137 210.836 252.804C201.6 257.787 192.705 263.188 184.193 268.981L184.203 269.069L204.083 267.939C208.871 267.667 213.824 267.357 218.055 265.49C219.661 264.782 221.226 263.836 223.045 263.77C225.306 263.688 227.277 264.989 228.826 266.348C237.988 274.389 240.639 286.686 250.919 293.75C244.437 280.576 236.697 267.846 227.773 255.681V255.681Z" fill="white"/>
<path id="Vector_16" d="M284.093 323.882C283.079 322.828 282.665 322.581 281.666 321.517C273.528 312.843 265.879 303.875 258.719 294.615C253.856 288.326 249.234 281.916 244.853 275.386C242.767 272.281 240.739 269.152 238.767 265.998C237.238 263.553 235.742 261.093 234.281 258.619C233.863 257.912 233.457 257.202 233.052 256.491C232.1 254.817 231.166 253.136 230.162 251.485C229.125 249.503 227.538 247.75 225.528 246.367C224.572 245.768 223.43 245.406 222.234 245.323C220.549 245.33 218.899 245.72 217.465 246.448C206.608 251.152 196.474 256.912 187.28 263.603C178.072 270.268 169.841 277.798 162.756 286.039C162.539 286.294 162.027 286.05 162.245 285.793C163.107 284.789 163.985 283.796 164.881 282.814C176.018 270.607 189.673 260.11 205.223 251.802C207.839 250.405 210.504 249.073 213.219 247.807C214.587 247.168 215.961 246.538 217.358 245.946C218.698 245.299 220.2 244.916 221.749 244.825C227.075 244.757 229.833 249.729 231.728 253.074C232.323 254.127 232.926 255.176 233.535 256.223C235.84 260.195 238.233 264.131 240.715 268.031C242.247 270.438 243.812 272.832 245.411 275.212C250.386 282.622 255.675 289.882 261.276 296.992C268.697 306.41 276.058 314.73 284.511 323.538C284.743 323.781 284.327 324.129 284.093 323.882Z" fill="white"/>
<path id="Vector_17" d="M186.753 261.149C186.444 260.864 186.136 260.58 185.825 260.296C183.368 258.057 180.733 255.844 177.36 254.56C175.751 253.929 173.996 253.594 172.214 253.578C170.376 253.619 168.564 253.945 166.872 254.538C166.068 254.803 165.281 255.103 164.507 255.423C163.621 255.79 162.752 256.182 161.887 256.577C160.262 257.318 158.659 258.091 157.077 258.897C153.928 260.5 150.879 262.226 147.928 264.075C146.398 265.033 144.899 266.023 143.433 267.045C142.069 267.993 140.732 268.968 139.423 269.967C139.143 270.18 138.725 269.836 139.005 269.623C139.35 269.358 139.699 269.095 140.048 268.835C141.034 268.101 142.035 267.38 143.052 266.674C144.907 265.384 146.81 264.144 148.761 262.954C151.795 261.101 154.934 259.375 158.177 257.774C159.797 256.975 161.44 256.209 163.105 255.477C163.608 255.256 164.116 255.04 164.631 254.835C165.798 254.35 167.011 253.943 168.258 253.618C170.024 253.147 171.893 252.996 173.736 253.175C175.516 253.388 177.231 253.877 178.791 254.616C182.103 256.141 184.671 258.5 187.171 260.803C187.424 261.036 187.008 261.383 186.753 261.149Z" fill="white"/>
<path id="Vector_18" d="M254.612 284.349L262.548 281.956L266.488 280.769C267.761 280.346 269.059 279.978 270.378 279.664C271.531 279.393 272.755 279.406 273.899 279.701C274.919 280.013 275.853 280.49 276.645 281.104C277.455 281.719 278.207 282.381 278.898 283.087C279.756 283.937 280.601 284.795 281.45 285.651C284.954 289.183 288.435 292.729 291.893 296.292C295.351 299.854 298.786 303.431 302.198 307.024C305.618 310.625 309.015 314.241 312.388 317.873C312.801 318.318 313.214 318.763 313.626 319.208C313.854 319.454 314.368 319.211 314.137 318.962C310.739 315.294 307.317 311.641 303.872 308.003C300.418 304.357 296.94 300.726 293.439 297.11C289.937 293.494 286.412 289.895 282.863 286.31C281.979 285.417 281.094 284.525 280.207 283.635C279.458 282.883 278.719 282.123 277.898 281.424C277.199 280.73 276.341 280.156 275.373 279.736C274.405 279.316 273.346 279.057 272.257 278.974C270.937 279.012 269.637 279.248 268.419 279.669C267.093 280.065 265.769 280.468 264.444 280.867L256.452 283.276L254.455 283.879C254.1 283.985 254.253 284.457 254.612 284.349V284.349Z" fill="white"/>
<path id="Vector_19" d="M176.315 257.378C174.276 256.549 172.006 256.183 169.739 256.317C167.471 256.451 165.287 257.079 163.412 258.138C170.481 259.143 177.472 260.488 184.351 262.166C181.494 260.786 179.26 258.625 176.315 257.378Z" fill="white"/>
<path id="Vector_20" d="M163.372 258.132L162.596 258.651C162.858 258.47 163.131 258.299 163.412 258.138L163.372 258.132Z" fill="white"/>
<path id="Vector_21" d="M276.347 284.372C275.652 283.529 274.684 282.862 273.552 282.45L272.461 282.485C280.766 294.579 291.982 305.146 305.42 313.539L276.347 284.372Z" fill="white"/>
<path id="Vector_22" d="M271.243 271.131C274.713 271.131 277.525 268.813 277.525 265.954C277.525 263.094 274.713 260.776 271.243 260.776C267.773 260.776 264.961 263.094 264.961 265.954C264.961 268.813 267.773 271.131 271.243 271.131Z" fill="white"/>
<path id="Vector_23" d="M362.41 323.49C363.647 323.488 364.833 323.083 365.707 322.362C366.582 321.641 367.074 320.664 367.076 319.644V240.173C367.076 239.153 366.584 238.175 365.709 237.454C364.834 236.732 363.647 236.327 362.41 236.327C361.172 236.327 359.986 236.732 359.111 237.454C358.236 238.175 357.744 239.153 357.744 240.173V319.644C357.746 320.664 358.238 321.641 359.113 322.362C359.987 323.083 361.173 323.488 362.41 323.49V323.49Z" fill="#3F3D56"/>
<path id="Vector_24" d="M362.41 323.49C363.647 323.488 364.833 323.083 365.707 322.362C366.582 321.641 367.074 320.664 367.076 319.644V302.793C366.538 302.189 365.836 301.698 365.025 301.359C364.215 301.021 363.319 300.845 362.41 300.845C361.501 300.845 360.605 301.021 359.795 301.359C358.984 301.698 358.281 302.189 357.744 302.793V319.644C357.746 320.664 358.238 321.641 359.113 322.362C359.987 323.083 361.173 323.488 362.41 323.49V323.49Z" fill="#2F2E41"/>
<path id="Vector_25" d="M362.41 307.254C363.74 307.252 365.015 306.816 365.956 306.04C366.897 305.265 367.426 304.214 367.428 303.118V284.995C366.85 284.345 366.094 283.817 365.223 283.453C364.351 283.089 363.387 282.899 362.41 282.899C361.433 282.899 360.469 283.089 359.597 283.453C358.725 283.817 357.97 284.345 357.392 284.995V303.118C357.394 304.214 357.923 305.265 358.864 306.04C359.804 306.816 361.08 307.252 362.41 307.254V307.254Z" fill="#6C63FF"/>
<path id="Vector_26" d="M362.41 303.958C363.38 303.957 364.31 303.639 364.996 303.073C365.682 302.508 366.069 301.741 366.07 300.942V287.723C365.648 287.249 365.097 286.864 364.461 286.599C363.826 286.333 363.123 286.195 362.41 286.195C361.697 286.195 360.994 286.333 360.358 286.599C359.722 286.864 359.171 287.249 358.75 287.723V300.942C358.751 301.741 359.137 302.508 359.823 303.073C360.51 303.639 361.44 303.957 362.41 303.958V303.958Z" fill="#3F3D56"/>
<path id="Vector_27" d="M218.468 412.77C217.649 412.165 217.154 411.317 217.092 410.413C217.031 409.508 217.407 408.62 218.139 407.943L258.905 370.351C259.267 370.016 259.707 369.744 260.198 369.549C260.688 369.354 261.221 369.241 261.765 369.216C262.308 369.191 262.853 369.254 263.367 369.403C263.881 369.551 264.355 369.781 264.761 370.08C265.167 370.379 265.498 370.741 265.734 371.146C265.97 371.55 266.107 371.989 266.138 372.437C266.168 372.886 266.092 373.334 265.912 373.758C265.732 374.182 265.452 374.572 265.089 374.907L224.324 412.499C223.59 413.174 222.562 413.582 221.464 413.632C220.366 413.683 219.288 413.373 218.468 412.77Z" fill="#6C63FF"/>
<path id="Vector_28" d="M556.645 474.664C556.645 480.894 554.862 485.662 555.079 489.473C542.85 493.873 530.275 497.59 517.441 500.599C515.989 500.941 514.538 501.266 513.076 501.59C505.164 481.629 497.243 463.35 494.122 461.41C486.978 456.992 483.4 475.271 483.4 470.853C483.4 466.435 486.978 466.435 478.05 460.547C469.112 454.66 474.473 428.161 474.473 428.161L461.968 401.661L475.956 359.396L494.122 304.493H511.987C511.987 304.493 512.516 304.809 513.397 305.398C517.866 308.406 531.345 318.456 529.852 329.522C529.406 332.82 530.402 342.408 532.133 355.175C537.401 393.723 549.501 435.629 549.501 446.687C549.501 461.41 556.645 465.828 556.645 474.664Z" fill="#E6E6E6"/>
<path id="Vector_29" d="M541.664 355.03C541.644 354.988 541.633 354.954 541.613 354.919C541.212 354.03 540.745 353.163 540.213 352.322C537.196 347.647 540.389 340.469 536.988 332.539C531.493 319.687 524.795 312.107 514.975 305.314C514.685 305.109 514.395 304.912 514.094 304.707L514.084 304.699C507.531 300.263 499.63 296.119 489.821 290.958C487.778 289.881 485.642 288.761 483.423 287.582C480.562 286.07 480.717 281.028 480.883 275.696C481.07 269.774 481.267 263.638 477.741 259.81L477.513 259.562L477.15 259.485C465.063 257.515 452.735 256.732 440.424 257.152H440.414C435.187 257.312 429.996 257.94 424.933 259.024C424.56 259.109 424.187 259.195 423.824 259.297C423.544 259.357 423.264 259.434 422.984 259.511L422.756 259.579L422.58 259.716C419.168 262.527 418.38 267.569 418.007 272.824V272.833C417.934 273.79 417.872 274.747 417.82 275.704C417.53 280.814 417.26 285.643 414.979 287.736C409.891 292.487 403.741 296.386 396.865 299.221C386.154 303.579 377.683 303.442 377.559 303.442L376.573 303.417L376.48 304.22C369.367 315.389 369.637 344.204 369.419 375.061C369.409 376.778 369.395 378.505 369.378 380.239C369.253 394.612 368.921 409.234 367.615 422.556C367.045 428.281 366.308 433.759 365.323 438.877C360.533 463.804 338.831 443.107 328.452 459.694C328.793 461.325 329.368 462.917 330.163 464.436C331.355 465.017 332.579 465.581 333.792 466.145C339.174 468.615 344.655 470.919 350.237 473.059C350.548 473.178 350.859 473.298 351.17 473.409C361.408 477.313 371.961 480.631 382.753 483.339C384.858 483.868 386.963 484.373 389.089 484.851C407.891 489.129 427.251 491.519 446.749 491.969C446.828 491.962 446.908 491.959 446.988 491.961C470.047 491.435 492.955 488.714 515.255 483.851C515.566 483.783 515.877 483.715 516.189 483.646C517.65 483.321 519.102 482.997 520.554 482.655C533.388 479.645 545.963 475.928 558.192 471.529C558.205 471.904 558.25 472.278 558.327 472.648C558.338 472.769 558.358 472.889 558.389 473.007C558.41 472.871 558.431 472.734 558.441 472.597C558.503 472.195 558.555 471.785 558.607 471.375C564.953 420.377 551.774 377.077 541.664 355.03Z" fill="#3F3D56"/>
<path id="Vector_30" d="M399.163 230.04C405.491 239.577 415.572 247.054 427.745 251.239C439.918 255.423 453.458 256.067 466.134 253.063C478.81 250.059 489.866 243.586 497.483 234.712C505.099 225.837 508.821 215.089 508.036 204.238C507.251 193.387 502.005 183.08 493.162 175.015C484.32 166.949 472.408 161.606 459.389 159.865C446.369 158.124 433.019 160.089 421.536 165.437C410.052 170.784 401.121 179.195 396.213 189.285C395.948 189.832 395.708 190.38 395.469 190.949C392.695 197.31 391.589 204.083 392.226 210.821C392.862 217.56 395.227 224.111 399.163 230.04V230.04Z" fill="#FFB6B6"/>
<path id="Vector_31" d="M390.819 190.949C393.317 185.19 392.227 188.19 394.752 182.452C393.104 187.533 395.708 190.38 395.469 190.949H464.585V157.837C444.336 151.223 424.54 145.595 412.582 157.837C401.926 157.837 391.707 161.326 384.173 167.536C376.638 173.745 372.405 182.167 372.404 190.949H390.819Z" fill="#2F2E41"/>
<path id="Vector_32" d="M415.319 282.994C415.372 282.381 415.452 281.746 415.558 281.133C416.302 276.621 418.162 272.285 420.049 267.993C422.042 263.372 424.062 258.729 426.081 254.108C423.48 262.496 424.274 271.354 428.34 279.337C440.005 271.847 432.644 254.721 447.897 254.721C484.568 254.721 522.301 230.215 522.301 199.972C522.301 169.75 506.57 147.15 469.9 147.15C433.202 147.15 403.441 160.99 402.724 191.212C447.897 199.972 406.789 279.928 415.319 282.994Z" fill="#2F2E41"/>
<path id="Vector_33" d="M517.719 195.34C541.2 195.34 560.235 179.652 560.235 160.3C560.235 140.948 541.2 125.26 517.719 125.26C494.238 125.26 475.202 140.948 475.202 160.3C475.202 179.652 494.238 195.34 517.719 195.34Z" fill="#2F2E41"/>
<path id="Vector_34" d="M605.751 359.304C605.606 361.107 605.479 363.027 605.368 365.063C603.17 403.423 605.067 455.063 590.25 483.083C586.932 484.578 583.58 486.008 580.193 487.372C580.058 487.424 579.933 487.475 579.819 487.526C578.907 487.894 577.994 488.253 577.082 488.594C577.049 488.618 577.01 488.635 576.968 488.646C566.948 492.548 556.622 495.891 546.059 498.652C544.763 498.994 543.456 499.319 542.15 499.644C541.87 499.712 541.59 499.78 541.31 499.849C521.409 504.699 500.835 507.424 480.093 507.958C479.015 507.984 477.957 508.001 476.93 508.018C476.567 508.026 476.215 508.035 475.862 508.035C474.701 508.044 473.55 508.052 472.389 508.052C470.046 508.052 467.713 508.024 465.39 507.967C445.892 507.516 426.532 505.126 407.73 500.848C405.604 500.37 403.499 499.866 401.394 499.336C390.602 496.628 380.049 493.31 369.811 489.406C369.5 489.295 369.189 489.176 368.878 489.056C363.3 486.92 357.818 484.615 352.433 482.143C351.22 481.579 349.996 481.015 348.804 480.434C348.009 478.914 347.434 477.322 347.093 475.691C344.74 466.368 342.852 472.657 341.504 453.26C340.271 435.477 339.483 417.643 339.192 407.448C339.099 404.731 339.068 402.552 339.057 401.065C340.157 394.587 357.825 387.238 383.591 380.257C386.028 379.599 388.547 378.941 391.129 378.291C398.097 376.523 405.542 374.788 413.318 373.113C433.123 368.84 455.115 364.918 476.941 361.679C487.714 360.09 498.446 358.663 508.866 357.449C527.146 355.313 544.441 353.835 559.237 353.228C560.658 353.168 562.048 353.117 563.416 353.083C564.888 353.031 566.33 352.997 567.74 352.972C589.058 352.587 603.616 354.416 605.751 359.304Z" fill="#2F2E41"/>
<path id="girlhand" d="M230.083 405.698C231.715 407.394 233.778 408.774 236.127 409.741C238.476 410.709 241.054 411.24 243.679 411.297C246.304 411.355 248.913 410.937 251.321 410.074C253.729 409.211 255.878 407.923 257.617 406.301L316.665 426.288L310.294 399.459L255.197 384.592C251.698 382.365 247.329 381.274 242.918 381.524C238.507 381.775 234.361 383.35 231.265 385.952C228.169 388.553 226.339 392 226.121 395.64C225.903 399.279 227.313 402.858 230.083 405.698V405.698Z" fill="#FFB6B6"/>
<path id="Vector_35" d="M426.502 293.976L426.179 293.948L391.745 296.008C387.374 296.27 383.119 297.294 379.265 299.014C375.411 300.735 372.044 303.111 369.389 305.985C368.155 307.317 367.087 308.747 366.201 310.256L366.192 310.26C363.224 315.266 362.329 320.935 363.645 326.4L379.856 393.654L340.851 390.734L326.613 392.739L309.81 387.152L275.333 387.636L274.534 389.814L267.301 409.573L266.733 411.126L319.381 438.468L334.644 434.641L341.835 439.194L342.18 439.201L356.439 439.433L417.25 440.416L433.872 416.146L436.469 412.341C455.774 376.699 460.538 351.818 459.027 334.677C458.235 325.62 455.694 318.735 452.618 313.547C443.107 297.513 427.172 294.111 426.502 293.976Z" fill="#3F3D56"/>
<path id="Vector_36" d="M528.826 195.484C520.763 193.99 513.289 190.843 507.095 186.334C500.9 181.825 496.188 176.101 493.393 169.691C490.898 163.729 489.957 157.181 485.77 151.874C492.149 144.655 497.264 136.733 500.965 128.339C502.398 125.09 505.753 119.192 500.065 117.404C495.533 115.98 490.385 119.417 487.699 122.129C485.658 124.184 484.195 126.586 483.414 129.163C482.487 125.791 481.561 122.42 480.634 119.049C480.517 118.726 480.252 118.452 479.896 118.285C479.539 118.118 479.119 118.071 478.721 118.154C471.13 119.22 465.624 125.014 464.667 131.116C464.145 134.257 465.012 137.449 467.11 140.107C469.549 143.165 473.12 145.357 476.519 147.635C480.133 150.059 483.196 152.639 485.139 156.183C487.159 159.866 488.068 163.897 489.408 167.764C491.951 175.192 496.878 181.917 503.67 187.23C510.461 192.544 518.867 196.249 528 197.956C529.951 198.307 530.784 195.836 528.826 195.484ZM485.955 134.2C485.711 130.98 486.743 127.782 488.897 125.087C489.975 123.721 491.326 122.515 492.892 121.52C494.377 120.585 496.568 119.347 498.533 119.69C501.081 120.136 500.056 122.48 499.515 123.894C498.801 125.759 498.016 127.605 497.159 129.43C495.492 132.975 493.556 136.431 491.363 139.776C490.225 141.518 489.009 143.222 487.738 144.899C486.862 141.712 485.987 138.525 485.111 135.338C485.387 135.255 485.62 135.097 485.774 134.891C485.927 134.684 485.991 134.441 485.955 134.2V134.2ZM467.789 134.711C467.28 131.799 468.018 128.831 469.876 126.319C471.733 123.807 474.595 121.906 477.968 120.944C480.437 129.928 482.906 138.912 485.375 147.896C484.865 148.515 484.34 149.126 483.813 149.735C483.675 149.604 483.549 149.469 483.405 149.34C478.227 144.696 469.197 141.529 467.789 134.711V134.711Z" fill="#6C63FF"/>
</g>
<defs>
<clipPath id="clip0_1_2">
<rect width="584" height="510" fill="white"/>
</clipPath>
</defs>
</svg>
