<svg width="617" height="355" viewBox="0 0 617 355" fill="none" xmlns="http://www.w3.org/2000/svg">
<g id="Frame 1">
<path id="Vector" d="M590.549 343.05C527.976 331.952 459.55 333.797 387.774 343.05C420.488 315.529 448.723 288.008 416.008 260.486C479.822 273.605 488.76 272.277 559.748 260.486C543.283 288.008 574.084 315.529 590.549 343.05Z" fill="#6C63FF"/>
<path id="Vector_2" opacity="0.2" d="M590.549 343.05C527.976 331.952 459.55 333.797 387.774 343.05C420.488 315.529 448.723 288.008 416.008 260.486C479.822 273.605 488.76 272.277 559.748 260.486C543.283 288.008 574.084 315.529 590.549 343.05Z" fill="black"/>
<path id="Vector_3" d="M575.286 331.309C522.133 322.45 464.008 323.923 403.036 331.309C430.826 309.341 454.81 287.373 427.021 265.405C481.228 275.876 488.821 274.816 549.122 265.405C535.135 287.373 561.3 309.341 575.286 331.309Z" fill="#6C63FF"/>
<path id="Vector_4" d="M555.041 295.913C570.682 295.913 583.362 283.277 583.362 267.691C583.362 252.104 570.682 239.469 555.041 239.469C539.399 239.469 526.72 252.104 526.72 267.691C526.72 283.277 539.399 295.913 555.041 295.913Z" fill="#2F2E41"/>
<path id="Vector_5" d="M426.475 234.956L446.099 238.216L455.911 266.461L427.566 283.843L394.86 234.956H425.385H426.475Z" fill="#A0616A"/>
<g id="head">
<path id="Vector_6" d="M482.075 278.411C507.363 278.411 527.863 257.983 527.863 232.784C527.863 207.585 507.363 187.157 482.075 187.157C456.787 187.157 436.287 207.585 436.287 232.784C436.287 257.983 456.787 278.411 482.075 278.411Z" fill="#A0616A"/>
</g>
<path id="Vector_7" d="M229.151 66.5701C229.151 66.5701 117.952 78.5202 98.3284 76.3474C78.705 74.1747 69.9834 72.002 69.9834 72.002C69.9834 72.002 56.9011 89.3838 63.4423 96.9883C67.1056 101.37 71.5386 105.052 76.5246 107.852C76.5246 107.852 88.5166 104.593 97.2382 107.852C105.96 111.111 194.265 125.234 209.528 112.197C224.79 99.1611 229.151 66.5701 229.151 66.5701Z" fill="#2F2E41"/>
<path id="Vector_8" d="M236.782 308.829C236.782 308.829 163.74 288.189 150.657 196.934V188.243C150.657 188.243 136.205 213.508 131.034 218.661C125.038 224.636 103.779 278.411 104.869 283.843C105.96 289.275 104.869 291.448 104.869 291.448L73.2539 288.189V278.411C73.2539 278.411 90.1519 227.895 91.2421 215.945C92.3323 203.995 133.214 120.888 133.214 120.888C133.214 120.888 148.477 89.3838 174.642 120.888C200.806 152.393 202.987 174.12 202.987 174.12L236.782 239.302L236.782 308.829Z" fill="#2F2E41"/>
<path id="Vector_9" d="M73.254 68.7429L38.3679 56.7929C38.3679 56.7929 5.66216 32.8929 13.2935 56.7929C20.9248 80.6929 55.8109 132.838 65.6226 127.407C75.4343 121.975 87.2345 108.492 84.605 106.542C81.9755 104.593 64.5324 90.4702 73.254 68.7429Z" fill="#2F2E41"/>
<path id="Vector_10" d="M77.4708 271.998L49.3091 285.703C49.3091 285.703 15.2531 290.924 34.2458 300.713C53.2386 310.502 105.632 320.944 108.252 311.808C110.872 302.671 109.832 287.507 107.078 287.91C104.323 288.313 85.3298 290.271 77.4708 271.998Z" fill="#2F2E41"/>
<path id="Vector_11" d="M222.61 237.129C222.61 237.129 208.437 297.966 232.422 311.002C256.406 324.039 424.295 326.211 437.377 302.311C450.46 278.411 443.919 278.411 443.919 278.411L409.032 239.302L437.377 237.129C437.377 237.129 437.377 228.439 427.566 227.352C417.754 226.266 387.229 215.402 361.064 223.007C334.899 230.611 319.637 207.798 319.637 207.798L222.61 237.129Z" fill="#575A89"/>
<path id="Vector_12" d="M204.077 47.0154L185.543 148.048L313.096 132.839L335.99 41.5836L204.077 47.0154Z" fill="#3F3D56"/>
<path id="Vector_13" d="M207.893 50.8179L192.63 140.986L308.735 127.407L331.084 45.3862L207.893 50.8179Z" fill="white"/>
<path id="Vector_14" d="M189.904 149.134L185.543 148.048L183.363 152.393L218.25 249.079L221.53 247.83L222.61 241.475L189.904 149.134Z" fill="#B3B3B3"/>
<path id="Vector_15" d="M185.543 146.961L220.43 247.993L352.342 228.439L313.096 132.839L185.543 146.961Z" fill="#D0CDE1"/>
<path id="Vector_16" d="M202.987 143.702V149.134L300.013 138.271L298.923 132.839L202.987 143.702Z" fill="#3F3D56"/>
<path id="Vector_17" d="M205.167 154.566L220.43 196.934L319.637 184.984L302.194 144.788L205.167 154.566Z" fill="#3F3D56"/>
<g id="rightHand">
<path id="Vector_18" d="M331.761 215.768L328.49 207.077C328.49 207.077 303.416 163.623 290.334 172.314C277.251 181.005 317.588 223.373 317.588 223.373H330.671L331.761 215.768Z" fill="#A0616A"/>
</g>
<g id="leftHand">
<path id="Vector_19" d="M246.594 220.834L243.324 207.797C243.324 207.797 234.602 167.602 249.865 169.775C265.127 171.947 269.488 209.97 269.488 209.97L268.398 218.661L246.594 220.834Z" fill="#A0616A"/>
</g>
<path id="Vector_20" d="M272.759 215.402C272.759 215.402 244.414 211.057 243.324 217.575C242.233 224.093 236.782 321.866 264.037 325.125C291.292 328.384 426.475 342.507 412.303 308.829C398.131 275.152 376.327 279.498 376.327 279.498L283.661 289.275L272.759 215.402Z" fill="#575A89"/>
<path id="Vector_21" d="M358.338 227.895L329.449 207.797L310.37 222.464L334.355 248.536L358.338 227.895Z" fill="#575A89"/>
<path id="Vector_22" opacity="0.2" d="M280.936 247.45L285.296 288.732L360.519 284.387L295.107 283.3L280.936 247.45Z" fill="black"/>
<path id="Vector_23" d="M504.677 295.393C534.782 295.393 559.187 271.074 559.187 241.075C559.187 211.075 534.782 186.756 504.677 186.756C474.573 186.756 450.168 211.075 450.168 241.075C450.168 271.074 474.573 295.393 504.677 295.393Z" fill="#2F2E41"/>
<g id="screen">
<path id="Vector_24" d="M224.246 82.3224L291.837 79.9778L298.378 55.1636L228.606 57.2617L224.246 82.3224Z" fill="#6C63FF"/>
</g>
<path id="Vector_25" d="M206.803 96.4455L309.28 93.186L310.37 88.8404L207.893 92.4359L206.803 96.4455Z" fill="#E6E6E6"/>
<path id="Vector_26" d="M204.622 107.309L307.1 104.05L308.19 99.704L205.712 103.299L204.622 107.309Z" fill="#E6E6E6"/>
<path id="Vector_27" d="M203.532 115.999L306.009 112.741L307.1 108.395L204.622 111.99L203.532 115.999Z" fill="#E6E6E6"/>
</g>
</svg>
