<svg width="651" height="383" viewBox="0 0 651 383" fill="none" xmlns="http://www.w3.org/2000/svg">
<g id="responsive" clip-path="url(#clip0_1_2)">
<path id="Vector" d="M35.2161 278.109C33.939 280.631 31.7948 282.622 29.1664 283.728C26.5381 284.834 23.5967 284.983 20.8677 284.147C20.316 283.976 20.5595 283.123 21.1118 283.294C23.6516 284.077 26.3915 283.938 28.8369 282.903C31.2823 281.868 33.2721 280.005 34.4473 277.65C34.7032 277.139 35.4707 277.601 35.2161 278.109V278.109Z" fill="white"/>
<path id="Vector_2" d="M78.3123 260.575C80.2216 255.129 79.9801 249.174 77.6357 243.896C77.403 243.374 78.2376 243.045 78.4701 243.567C80.8992 249.063 81.1379 255.261 79.1384 260.924C78.9474 261.464 78.1224 261.112 78.3123 260.575Z" fill="white"/>
<path id="Vector_3" d="M50.5617 220.4C51.6543 220.118 52.6587 219.572 53.4849 218.813C54.3111 218.053 54.9331 217.103 55.295 216.048C55.4789 215.506 56.3037 215.859 56.121 216.397C55.7156 217.561 55.0274 218.61 54.1165 219.451C53.2056 220.292 52.0997 220.9 50.8954 221.223C50.7845 221.263 50.6624 221.259 50.5539 221.213C50.4454 221.168 50.3587 221.083 50.3114 220.976C50.2677 220.867 50.2695 220.745 50.3164 220.637C50.3632 220.529 50.4513 220.444 50.5616 220.4H50.5617Z" fill="white"/>
<path id="Vector_4" d="M567.477 6.14372H439.539V14.2622C439.537 14.6779 439.682 15.0814 439.949 15.4032C439.691 21.7489 439.539 29.8497 439.539 38.6528V255.702C439.539 276.047 440.367 292.6 441.381 292.6H565.636C566.65 292.6 567.477 276.047 567.477 255.702V38.6528C567.477 29.8497 567.326 21.7489 567.068 15.4032C567.335 15.0813 567.479 14.6779 567.477 14.2622L567.477 6.14372Z" fill="white"/>
<path id="Vector_5" d="M565.226 8.77664H440.971C440.483 8.77757 440.015 8.96927 439.67 9.30977C439.325 9.65028 439.13 10.1119 439.129 10.5934V21.2835C439.127 21.6992 439.272 22.1027 439.539 22.4245C439.712 22.635 439.93 22.8048 440.178 22.9217C440.426 23.0386 440.697 23.0996 440.971 23.1003H565.226C565.5 23.0995 565.771 23.0385 566.019 22.9216C566.267 22.8047 566.485 22.6349 566.658 22.4245C566.925 22.1026 567.069 21.6992 567.067 21.2835V10.5934C567.066 10.1119 566.872 9.65033 566.527 9.30981C566.182 8.9693 565.714 8.77758 565.226 8.77664V8.77664Z" fill="#CACACA"/>
<path id="Ellipse 90" d="M449.824 17.9967C451.269 17.9967 452.44 16.8416 452.44 15.4167C452.44 13.9918 451.269 12.8366 449.824 12.8366C448.379 12.8366 447.208 13.9918 447.208 15.4167C447.208 16.8416 448.379 17.9967 449.824 17.9967Z" fill="white"/>
<path id="Ellipse 91" d="M459.752 17.9967C461.196 17.9967 462.367 16.8416 462.367 15.4167C462.367 13.9918 461.196 12.8366 459.752 12.8366C458.307 12.8366 457.136 13.9918 457.136 15.4167C457.136 16.8416 458.307 17.9967 459.752 17.9967Z" fill="white"/>
<path id="Ellipse 92" d="M469.68 17.9967C471.124 17.9967 472.295 16.8416 472.295 15.4167C472.295 13.9918 471.124 12.8366 469.68 12.8366C468.235 12.8366 467.064 13.9918 467.064 15.4167C467.064 16.8416 468.235 17.9967 469.68 17.9967Z" fill="white"/>
<path id="Vector_6" d="M555.5 11.9714H544.067C543.843 11.9729 543.629 12.0612 543.471 12.2173C543.313 12.3733 543.223 12.5846 543.222 12.8052C543.218 12.9309 543.249 13.0551 543.311 13.1651C543.379 13.3064 543.486 13.4259 543.62 13.5098C543.753 13.5937 543.908 13.6385 544.067 13.639H555.5C555.66 13.6398 555.817 13.5956 555.953 13.5117C556.088 13.4278 556.197 13.3076 556.266 13.1651C556.32 13.0529 556.348 12.9297 556.346 12.8052C556.346 12.6957 556.324 12.5872 556.282 12.486C556.239 12.3849 556.177 12.2929 556.098 12.2155C556.02 12.138 555.927 12.0766 555.824 12.0348C555.721 11.9929 555.611 11.9714 555.5 11.9714V11.9714Z" fill="white"/>
<path id="Vector_7" d="M555.5 15.1048H544.067C543.843 15.1048 543.628 15.1926 543.469 15.349C543.311 15.5053 543.222 15.7174 543.222 15.9385C543.222 16.1597 543.311 16.3718 543.469 16.5281C543.628 16.6845 543.843 16.7723 544.067 16.7723H555.5C555.725 16.7723 555.94 16.6845 556.098 16.5281C556.257 16.3718 556.346 16.1597 556.346 15.9385C556.346 15.7174 556.257 15.5053 556.098 15.349C555.94 15.1926 555.725 15.1048 555.5 15.1048V15.1048Z" fill="white"/>
<path id="Vector_8" d="M555.5 18.238H544.067C543.843 18.238 543.628 18.3259 543.469 18.4823C543.311 18.6386 543.222 18.8507 543.222 19.0718C543.222 19.293 543.311 19.505 543.469 19.6614C543.628 19.8178 543.843 19.9056 544.067 19.9056H555.5C555.725 19.9056 555.94 19.8178 556.098 19.6614C556.257 19.505 556.346 19.293 556.346 19.0718C556.346 18.8507 556.257 18.6386 556.098 18.4823C555.94 18.3259 555.725 18.238 555.5 18.238V18.238Z" fill="white"/>
<path id="Vector_9" d="M515.461 46.5343H491.936C490.757 46.5348 489.625 46.9973 488.791 47.8201C487.957 48.643 487.488 49.759 487.488 50.9227V71.0215C487.489 72.1847 487.959 73.2998 488.793 74.1224C489.627 74.9449 490.757 75.4079 491.936 75.4099H515.461C516.64 75.4064 517.77 74.943 518.603 74.1208C519.437 73.2985 519.907 72.1843 519.91 71.0215V50.9227C519.908 49.7594 519.439 48.6443 518.605 47.8218C517.771 46.9992 516.641 46.5362 515.461 46.5343Z" fill="#6C63FF"/>
<path id="Vector_10" d="M544.69 88.5398H462.699C462.163 88.5398 461.65 88.7497 461.271 89.1233C460.892 89.497 460.679 90.0037 460.679 90.5321C460.679 91.0605 460.892 91.5673 461.271 91.9409C461.65 92.3145 462.163 92.5245 462.699 92.5245H544.69C545.226 92.5245 545.739 92.3145 546.118 91.9409C546.497 91.5673 546.71 91.0605 546.71 90.5321C546.71 90.0037 546.497 89.497 546.118 89.1233C545.739 88.7497 545.226 88.5398 544.69 88.5398V88.5398Z" fill="#E4E4E4"/>
<path id="Vector_11" d="M493.841 97.8783H462.699C462.163 97.8783 461.65 98.0882 461.271 98.4619C460.892 98.8355 460.679 99.3423 460.679 99.8707C460.679 100.399 460.892 100.906 461.271 101.279C461.65 101.653 462.163 101.863 462.699 101.863H493.841C494.376 101.863 494.89 101.653 495.269 101.279C495.648 100.906 495.86 100.399 495.86 99.8707C495.86 99.3423 495.648 98.8355 495.269 98.4619C494.89 98.0882 494.376 97.8783 493.841 97.8783V97.8783Z" fill="#E4E4E4"/>
<path id="Vector_12" d="M515.461 133.424H491.936C490.757 133.425 489.625 133.887 488.791 134.71C487.957 135.533 487.488 136.649 487.488 137.813V157.911C487.489 159.075 487.959 160.19 488.793 161.012C489.627 161.835 490.757 162.298 491.936 162.3H515.461C516.64 162.296 517.77 161.833 518.603 161.011C519.437 160.188 519.907 159.074 519.91 157.911V137.813C519.908 136.649 519.439 135.534 518.605 134.712C517.771 133.889 516.641 133.426 515.461 133.424Z" fill="#6C63FF"/>
<path id="Vector_13" d="M544.69 175.43H462.699C462.163 175.43 461.65 175.64 461.271 176.013C460.892 176.387 460.679 176.894 460.679 177.422C460.679 177.95 460.892 178.457 461.271 178.831C461.65 179.204 462.163 179.414 462.699 179.414H544.69C545.226 179.414 545.739 179.204 546.118 178.831C546.497 178.457 546.71 177.95 546.71 177.422C546.71 176.894 546.497 176.387 546.118 176.013C545.739 175.64 545.226 175.43 544.69 175.43V175.43Z" fill="#E4E4E4"/>
<path id="Vector_14" d="M493.841 184.768H462.699C462.163 184.768 461.65 184.978 461.271 185.352C460.892 185.725 460.679 186.232 460.679 186.761C460.679 187.289 460.892 187.796 461.271 188.169C461.65 188.543 462.163 188.753 462.699 188.753H493.841C494.376 188.753 494.89 188.543 495.269 188.169C495.648 187.796 495.86 187.289 495.86 186.761C495.86 186.232 495.648 185.725 495.269 185.352C494.89 184.978 494.376 184.768 493.841 184.768V184.768Z" fill="#E4E4E4"/>
<path id="Vector_15" d="M515.461 220.314H491.936C490.757 220.315 489.625 220.777 488.791 221.6C487.957 222.423 487.488 223.539 487.488 224.702V244.801C487.489 245.965 487.959 247.08 488.793 247.902C489.627 248.725 490.757 249.188 491.936 249.19H515.461C516.64 249.186 517.77 248.723 518.603 247.901C519.437 247.078 519.907 245.964 519.91 244.801V224.702C519.908 223.539 519.439 222.424 518.605 221.602C517.771 220.779 516.641 220.316 515.461 220.314V220.314Z" fill="#6C63FF"/>
<path id="Vector_16" d="M544.69 262.32H462.699C462.163 262.32 461.65 262.529 461.271 262.903C460.892 263.277 460.679 263.784 460.679 264.312C460.679 264.84 460.892 265.347 461.271 265.721C461.65 266.094 462.163 266.304 462.699 266.304H544.69C545.226 266.304 545.739 266.094 546.118 265.721C546.497 265.347 546.71 264.84 546.71 264.312C546.71 263.784 546.497 263.277 546.118 262.903C545.739 262.529 545.226 262.32 544.69 262.32V262.32Z" fill="#E4E4E4"/>
<path id="Vector_17" d="M493.841 271.658H462.699C462.163 271.658 461.65 271.868 461.271 272.242C460.892 272.615 460.679 273.122 460.679 273.65C460.679 274.179 460.892 274.686 461.271 275.059C461.65 275.433 462.163 275.643 462.699 275.643H493.841C494.376 275.643 494.89 275.433 495.269 275.059C495.648 274.686 495.86 274.179 495.86 273.65C495.86 273.122 495.648 272.615 495.269 272.242C494.89 271.868 494.376 271.658 493.841 271.658Z" fill="#E4E4E4"/>
<path id="Vector_18" d="M404.652 -17.4921C404.651 -17.9736 404.457 -18.4352 404.112 -18.7757C403.766 -19.1162 403.299 -19.3079 402.81 -19.3089H73.9123C73.4241 -19.3079 72.9561 -19.1162 72.6109 -18.7757C72.2656 -18.4352 72.0712 -17.9737 72.0702 -17.4921V-6.80199C72.0686 -6.35693 72.2371 -5.92761 72.542 -5.59956C72.2483 1.65881 72.0702 11.2255 72.0702 21.7049V262.987C72.0702 285.613 72.8978 304.009 73.9123 304.009H402.81C403.825 304.009 404.652 285.613 404.652 262.987V21.7049C404.652 11.2255 404.474 1.65881 404.181 -5.59956C404.485 -5.92766 404.654 -6.35698 404.652 -6.80199V-17.4921Z" fill="white"/>
<path id="Vector_19" d="M402.4 325.073H73.5022C72.4968 325.073 71.8899 325.073 71.3119 312.208C70.9627 304.436 70.7704 294.125 70.7704 283.173V41.8914C70.7704 31.7917 70.9382 22.0824 71.243 14.5519C71.8279 -3.40581e-05 72.494 -4.57764e-05 73.5022 -4.57764e-05H402.4C403.408 -4.57764e-05 404.075 0.00253726 404.66 14.5519C404.964 22.0756 405.132 31.7849 405.132 41.8914V283.173C405.132 294.125 404.939 304.437 404.59 312.208C404.013 325.073 403.406 325.073 402.4 325.073ZM74.0216 323.318H401.881C402.609 320.566 403.352 305.115 403.352 283.173V41.8914C403.352 31.8076 403.185 22.1227 402.882 14.6222V14.6218C402.511 5.40316 402.078 2.59784 401.871 1.75531H74.0313C73.8244 2.59787 73.3917 5.40316 73.021 14.6218C72.7172 22.13 72.5499 31.8144 72.5499 41.8914V283.173C72.5499 305.115 73.2934 320.566 74.0216 323.318V323.318Z" fill="#E4E4E4"/>
<path id="Vector_20" d="M402.4 0.877563H73.5022C73.014 0.878493 72.5461 1.07019 72.2008 1.4107C71.8556 1.7512 71.6612 2.21278 71.6602 2.69436V13.3844C71.6586 13.8295 71.8271 14.2588 72.132 14.5869C72.303 14.7795 72.5136 14.9339 72.7499 15.0399C72.9862 15.1458 73.2427 15.2008 73.5022 15.2012H402.4C402.66 15.2008 402.916 15.1458 403.153 15.0399C403.389 14.9339 403.6 14.7795 403.771 14.5869C404.075 14.2588 404.244 13.8295 404.242 13.3844V2.69436C404.241 2.21283 404.047 1.75129 403.702 1.41078C403.356 1.07027 402.888 0.878529 402.4 0.877563V0.877563Z" fill="#CACACA"/>
<path id="Ellipse 90_2" d="M82.3549 10.0976C83.7994 10.0976 84.9705 8.94251 84.9705 7.51759C84.9705 6.09268 83.7994 4.93756 82.3549 4.93756C80.9104 4.93756 79.7394 6.09268 79.7394 7.51759C79.7394 8.94251 80.9104 10.0976 82.3549 10.0976Z" fill="white"/>
<path id="Ellipse 91_2" d="M92.2827 10.0976C93.7272 10.0976 94.8982 8.94251 94.8982 7.51759C94.8982 6.09268 93.7272 4.93756 92.2827 4.93756C90.8381 4.93756 89.6671 6.09268 89.6671 7.51759C89.6671 8.94251 90.8381 10.0976 92.2827 10.0976Z" fill="white"/>
<path id="Ellipse 92_2" d="M102.211 10.0976C103.655 10.0976 104.826 8.94251 104.826 7.51759C104.826 6.09268 103.655 4.93756 102.211 4.93756C100.766 4.93756 99.5953 6.09268 99.5953 7.51759C99.5953 8.94251 100.766 10.0976 102.211 10.0976Z" fill="white"/>
<path id="Vector_21" d="M392.675 4.07236H381.242C381.017 4.07236 380.802 4.1602 380.644 4.31657C380.485 4.47293 380.396 4.68501 380.396 4.90615C380.396 5.12728 380.485 5.33936 380.644 5.49573C380.802 5.65209 381.017 5.73995 381.242 5.73995H392.675C392.899 5.73995 393.114 5.65209 393.273 5.49573C393.431 5.33936 393.52 5.12728 393.52 4.90615C393.52 4.68501 393.431 4.47293 393.273 4.31657C393.114 4.1602 392.899 4.07236 392.675 4.07236Z" fill="white"/>
<path id="Vector_22" d="M392.675 7.20567H381.242C381.017 7.20567 380.802 7.29351 380.644 7.44988C380.485 7.60625 380.396 7.81833 380.396 8.03946C380.396 8.2606 380.485 8.47268 380.644 8.62904C380.802 8.78541 381.017 8.87325 381.242 8.87325H392.675C392.899 8.87325 393.114 8.78541 393.273 8.62904C393.431 8.47268 393.52 8.2606 393.52 8.03946C393.52 7.81833 393.431 7.60625 393.273 7.44988C393.114 7.29351 392.899 7.20567 392.675 7.20567V7.20567Z" fill="white"/>
<path id="Vector_23" d="M392.675 10.339H381.242C381.017 10.339 380.802 10.4268 380.644 10.5832C380.485 10.7395 380.396 10.9516 380.396 11.1727C380.396 11.3939 380.485 11.606 380.644 11.7623C380.802 11.9187 381.017 12.0066 381.242 12.0066H392.675C392.899 12.0066 393.114 11.9187 393.273 11.7623C393.431 11.606 393.52 11.3939 393.52 11.1727C393.52 10.9516 393.431 10.7395 393.273 10.5832C393.114 10.4268 392.899 10.339 392.675 10.339V10.339Z" fill="white"/>
<path id="bigscreen" d="M179.81 54.4334H141.319C139.39 54.4357 137.54 55.1929 136.175 56.5388C134.811 57.8847 134.044 59.7094 134.041 61.6128V94.4993C134.044 96.4026 134.811 98.2274 136.175 99.5733C137.54 100.919 139.39 101.676 141.319 101.679H179.81C181.74 101.676 183.59 100.919 184.954 99.5733C186.318 98.2274 187.086 96.4026 187.088 94.4993V61.6128C187.086 59.7094 186.318 57.8847 184.954 56.5388C183.59 55.1929 181.74 54.4357 179.81 54.4334V54.4334Z" fill="#6C63FF"/>
<path id="Vector_24" d="M338.569 67.1509H204.412C203.535 67.1509 202.694 67.4945 202.075 68.1059C201.455 68.7174 201.106 69.5467 201.106 70.4115C201.106 71.2762 201.455 72.1056 202.075 72.717C202.694 73.3285 203.535 73.672 204.412 73.672H338.569C339.446 73.672 340.286 73.3285 340.906 72.717C341.526 72.1056 341.875 71.2762 341.875 70.4115C341.875 69.5467 341.526 68.7174 340.906 68.1059C340.286 67.4945 339.446 67.1509 338.569 67.1509V67.1509Z" fill="#E4E4E4"/>
<path id="Vector_25" d="M255.368 82.4312H204.412C203.535 82.4312 202.694 82.7747 202.075 83.3862C201.455 83.9977 201.106 84.827 201.106 85.6917C201.106 86.5565 201.455 87.3858 202.075 87.9973C202.694 88.6088 203.535 88.9523 204.412 88.9523H255.368C256.245 88.9523 257.086 88.6088 257.706 87.9973C258.325 87.3858 258.674 86.5565 258.674 85.6917C258.674 84.827 258.325 83.9977 257.706 83.3862C257.086 82.7747 256.245 82.4312 255.368 82.4312V82.4312Z" fill="#E4E4E4"/>
<path id="bigscreen2" d="M179.81 142.201H141.319C139.39 142.203 137.54 142.96 136.175 144.306C134.811 145.652 134.044 147.477 134.041 149.38V182.267C134.044 184.17 134.811 185.995 136.175 187.341C137.54 188.687 139.39 189.444 141.319 189.446H179.81C181.74 189.444 183.59 188.687 184.954 187.341C186.318 185.995 187.086 184.17 187.088 182.267V149.38C187.086 147.477 186.318 145.652 184.954 144.306C183.59 142.96 181.74 142.203 179.81 142.201V142.201Z" fill="#6C63FF"/>
<path id="Vector_26" d="M338.569 154.918H204.412C203.535 154.918 202.694 155.262 202.075 155.873C201.455 156.485 201.106 157.314 201.106 158.179C201.106 159.044 201.455 159.873 202.075 160.485C202.694 161.096 203.535 161.44 204.412 161.44H338.569C339.446 161.44 340.286 161.096 340.906 160.485C341.526 159.873 341.875 159.044 341.875 158.179C341.875 157.314 341.526 156.485 340.906 155.873C340.286 155.262 339.446 154.918 338.569 154.918V154.918Z" fill="#E4E4E4"/>
<path id="Vector_27" d="M255.368 170.199H204.412C203.535 170.199 202.694 170.542 202.075 171.154C201.455 171.765 201.106 172.595 201.106 173.459C201.106 174.324 201.455 175.153 202.075 175.765C202.694 176.376 203.535 176.72 204.412 176.72H255.368C256.245 176.72 257.086 176.376 257.706 175.765C258.325 175.153 258.674 174.324 258.674 173.459C258.674 172.595 258.325 171.765 257.706 171.154C257.086 170.542 256.245 170.199 255.368 170.199V170.199Z" fill="#E4E4E4"/>
<path id="bigscreen3" d="M179.81 229.969H141.319C139.39 229.971 137.54 230.728 136.175 232.074C134.811 233.42 134.044 235.245 134.041 237.148V270.034C134.044 271.938 134.811 273.763 136.175 275.108C137.54 276.454 139.39 277.211 141.319 277.214H179.81C181.74 277.211 183.59 276.454 184.954 275.108C186.318 273.763 187.086 271.938 187.088 270.034V237.148C187.086 235.245 186.318 233.42 184.954 232.074C183.59 230.728 181.74 229.971 179.81 229.969V229.969Z" fill="#6C63FF"/>
<path id="Vector_28" d="M338.569 242.686H204.412C203.535 242.686 202.694 243.03 202.075 243.641C201.455 244.253 201.106 245.082 201.106 245.947C201.106 246.811 201.455 247.641 202.075 248.252C202.694 248.864 203.535 249.207 204.412 249.207H338.569C339.446 249.207 340.286 248.864 340.906 248.252C341.526 247.641 341.875 246.811 341.875 245.947C341.875 245.082 341.526 244.253 340.906 243.641C340.286 243.03 339.446 242.686 338.569 242.686V242.686Z" fill="#E4E4E4"/>
<path id="Vector_29" d="M255.368 257.966H204.412C203.535 257.966 202.694 258.31 202.075 258.921C201.455 259.533 201.106 260.362 201.106 261.227C201.106 262.092 201.455 262.921 202.075 263.532C202.694 264.144 203.535 264.487 204.412 264.487H255.368C256.245 264.487 257.086 264.144 257.706 263.532C258.325 262.921 258.674 262.092 258.674 261.227C258.674 260.362 258.325 259.533 257.706 258.921C257.086 258.31 256.245 257.966 255.368 257.966V257.966Z" fill="#E4E4E4"/>
<path id="Vector_30" d="M463.313 386.511H242.966C241.95 386.511 241.124 371.109 241.124 352.174V150.191C241.124 131.256 241.95 115.853 242.966 115.853H463.313C464.329 115.853 465.155 131.256 465.155 150.191V352.174C465.155 371.109 464.329 386.511 463.313 386.511Z" fill="white"/>
<path id="Vector_31" d="M461.127 383H240.78C239.848 383 239.174 383 238.589 372.101C238.24 365.593 238.048 356.957 238.048 347.785V145.802C238.048 136.629 238.24 127.994 238.589 121.486C239.174 110.586 239.848 110.586 240.78 110.586H461.127C462.059 110.586 462.733 110.586 463.317 121.486C463.667 127.994 463.859 136.629 463.859 145.802V347.785C463.859 356.957 463.667 365.593 463.317 372.101C462.733 383 462.059 383 461.127 383ZM241.272 381.245H460.634C461.273 378.971 462.079 366.856 462.079 347.785V145.802C462.079 126.73 461.273 114.616 460.634 112.342H241.272C240.634 114.616 239.827 126.73 239.827 145.802V347.785C239.827 366.856 240.634 378.971 241.272 381.245Z" fill="#E4E4E4"/>
<path id="Vector_32" d="M461.127 125.788H240.78C240.291 125.788 239.823 125.596 239.478 125.255C239.132 124.915 238.938 124.453 238.938 123.971V113.281C238.938 112.8 239.132 112.338 239.478 111.997C239.823 111.656 240.291 111.465 240.78 111.464H461.127C461.615 111.465 462.083 111.656 462.429 111.997C462.774 112.338 462.968 112.8 462.969 113.281V123.971C462.968 124.453 462.774 124.915 462.429 125.255C462.083 125.596 461.615 125.788 461.127 125.788V125.788Z" fill="#CACACA"/>
<path id="Ellipse 90_3" d="M249.629 120.685C251.073 120.685 252.245 119.53 252.245 118.105C252.245 116.68 251.073 115.525 249.629 115.525C248.184 115.525 247.013 116.68 247.013 118.105C247.013 119.53 248.184 120.685 249.629 120.685Z" fill="white"/>
<path id="Ellipse 91_3" d="M259.557 120.685C261.001 120.685 262.172 119.53 262.172 118.105C262.172 116.68 261.001 115.525 259.557 115.525C258.112 115.525 256.941 116.68 256.941 118.105C256.941 119.53 258.112 120.685 259.557 120.685Z" fill="white"/>
<path id="Ellipse 92_3" d="M269.485 120.685C270.929 120.685 272.1 119.53 272.1 118.105C272.1 116.68 270.929 115.525 269.485 115.525C268.04 115.525 266.869 116.68 266.869 118.105C266.869 119.53 268.04 120.685 269.485 120.685Z" fill="white"/>
<path id="Vector_33" d="M451.4 116.329H439.967C439.743 116.329 439.527 116.241 439.369 116.084C439.21 115.928 439.121 115.715 439.121 115.494C439.121 115.272 439.21 115.06 439.369 114.903C439.527 114.746 439.743 114.658 439.967 114.658H451.4C451.624 114.659 451.838 114.747 451.997 114.904C452.155 115.06 452.244 115.273 452.244 115.494C452.244 115.715 452.155 115.927 451.997 116.083C451.838 116.24 451.624 116.328 451.4 116.329Z" fill="white"/>
<path id="Vector_34" d="M451.4 119.461H439.967C439.743 119.461 439.527 119.373 439.369 119.217C439.21 119.06 439.121 118.848 439.121 118.626C439.121 118.405 439.21 118.192 439.369 118.035C439.527 117.879 439.743 117.791 439.967 117.791H451.4C451.624 117.791 451.84 117.879 451.998 118.035C452.157 118.192 452.247 118.405 452.247 118.626C452.247 118.848 452.157 119.06 451.998 119.217C451.84 119.373 451.624 119.461 451.4 119.461V119.461Z" fill="white"/>
<path id="Vector_35" d="M451.4 122.594H439.967C439.743 122.594 439.527 122.506 439.369 122.349C439.21 122.193 439.121 121.98 439.121 121.759C439.121 121.537 439.21 121.325 439.369 121.168C439.527 121.011 439.743 120.923 439.967 120.923H451.4C451.624 120.924 451.838 121.012 451.997 121.169C452.155 121.325 452.244 121.538 452.244 121.759C452.244 121.98 452.155 122.192 451.997 122.348C451.838 122.505 451.624 122.593 451.4 122.594V122.594Z" fill="white"/>
<path id="mediumscreen1" d="M308.49 192.138H280.38C278.97 192.136 277.619 191.583 276.623 190.6C275.626 189.617 275.066 188.284 275.064 186.894V162.878C275.066 161.488 275.626 160.155 276.623 159.172C277.619 158.189 278.97 157.636 280.38 157.634H308.49C309.899 157.636 311.251 158.189 312.247 159.172C313.244 160.155 313.804 161.488 313.806 162.878V186.894C313.804 188.284 313.244 189.617 312.247 190.6C311.251 191.583 309.899 192.136 308.49 192.138Z" fill="#6C63FF"/>
<path id="Vector_36" d="M424.429 171.687H326.458C325.818 171.687 325.204 171.436 324.751 170.99C324.299 170.544 324.044 169.938 324.044 169.307C324.044 168.675 324.299 168.07 324.751 167.623C325.204 167.177 325.818 166.926 326.458 166.926H424.429C425.069 166.926 425.683 167.177 426.136 167.623C426.588 168.07 426.843 168.675 426.843 169.307C426.843 169.938 426.588 170.544 426.136 170.99C425.683 171.436 425.069 171.687 424.429 171.687V171.687Z" fill="#E4E4E4"/>
<path id="Vector_37" d="M363.669 182.846H326.458C325.818 182.846 325.204 182.595 324.751 182.149C324.299 181.702 324.044 181.097 324.044 180.465C324.044 179.834 324.299 179.228 324.751 178.782C325.204 178.335 325.818 178.085 326.458 178.085H363.669C363.986 178.084 364.301 178.145 364.594 178.265C364.887 178.384 365.154 178.559 365.378 178.78C365.603 179.001 365.781 179.264 365.903 179.553C366.024 179.842 366.087 180.152 366.087 180.465C366.087 180.778 366.024 181.088 365.903 181.377C365.781 181.667 365.603 181.929 365.378 182.15C365.154 182.371 364.887 182.547 364.594 182.666C364.301 182.785 363.986 182.847 363.669 182.846Z" fill="#E4E4E4"/>
<path id="meduimscreen2" d="M308.49 268.473H280.38C278.97 268.472 277.619 267.919 276.623 266.936C275.626 265.952 275.066 264.62 275.064 263.229V239.213C275.066 237.823 275.626 236.49 276.623 235.507C277.619 234.524 278.97 233.971 280.38 233.97H308.49C309.899 233.971 311.251 234.524 312.247 235.507C313.244 236.49 313.804 237.823 313.806 239.213V263.229C313.804 264.62 313.244 265.952 312.247 266.936C311.251 267.919 309.899 268.472 308.49 268.473Z" fill="#6C63FF"/>
<path id="Vector_38" d="M424.429 242.779H326.458C325.818 242.779 325.204 242.528 324.751 242.082C324.299 241.635 324.044 241.03 324.044 240.398C324.044 239.767 324.299 239.161 324.751 238.715C325.204 238.268 325.818 238.018 326.458 238.018H424.429C425.069 238.018 425.683 238.268 426.136 238.715C426.588 239.161 426.843 239.767 426.843 240.398C426.843 241.03 426.588 241.635 426.136 242.082C425.683 242.528 425.069 242.779 424.429 242.779V242.779Z" fill="#E4E4E4"/>
<path id="Vector_39" d="M363.669 253.938H326.458C325.818 253.938 325.204 253.687 324.751 253.24C324.299 252.794 324.044 252.188 324.044 251.557C324.044 250.926 324.299 250.32 324.751 249.874C325.204 249.427 325.818 249.176 326.458 249.176H363.669C363.986 249.176 364.301 249.237 364.594 249.356C364.887 249.476 365.154 249.651 365.378 249.872C365.603 250.093 365.781 250.356 365.903 250.645C366.024 250.934 366.087 251.244 366.087 251.557C366.087 251.87 366.024 252.18 365.903 252.469C365.781 252.758 365.603 253.021 365.378 253.242C365.154 253.463 364.887 253.638 364.594 253.758C364.301 253.877 363.986 253.938 363.669 253.938V253.938Z" fill="#E4E4E4"/>
<path id="meduimscreen3" d="M308.49 334.321H280.38C278.97 334.32 277.619 333.767 276.623 332.784C275.626 331.801 275.066 330.468 275.064 329.077V305.061C275.066 303.671 275.626 302.338 276.623 301.355C277.619 300.372 278.97 299.819 280.38 299.818H308.49C309.899 299.819 311.251 300.372 312.247 301.355C313.244 302.338 313.804 303.671 313.806 305.061V329.077C313.804 330.468 313.244 331.8 312.247 332.784C311.251 333.767 309.899 334.32 308.49 334.321Z" fill="#6C63FF"/>
<path id="Vector_40" d="M424.429 313.871H326.458C325.818 313.871 325.204 313.62 324.751 313.173C324.299 312.727 324.044 312.121 324.044 311.49C324.044 310.859 324.299 310.253 324.751 309.807C325.204 309.36 325.818 309.109 326.458 309.109H424.429C425.069 309.109 425.683 309.36 426.136 309.807C426.588 310.253 426.843 310.859 426.843 311.49C426.843 312.121 426.588 312.727 426.136 313.173C425.683 313.62 425.069 313.871 424.429 313.871Z" fill="#E4E4E4"/>
<path id="Vector_41" d="M363.669 325.029H326.458C325.818 325.029 325.204 324.779 324.751 324.332C324.299 323.886 324.044 323.28 324.044 322.649C324.044 322.017 324.299 321.412 324.751 320.965C325.204 320.519 325.818 320.268 326.458 320.268H363.669C363.986 320.268 364.301 320.329 364.594 320.448C364.887 320.567 365.154 320.743 365.378 320.964C365.603 321.185 365.781 321.448 365.903 321.737C366.024 322.026 366.087 322.336 366.087 322.649C366.087 322.962 366.024 323.272 365.903 323.561C365.781 323.85 365.603 324.113 365.378 324.334C365.154 324.555 364.887 324.73 364.594 324.85C364.301 324.969 363.986 325.03 363.669 325.029V325.029Z" fill="#E4E4E4"/>
</g>
<defs>
<clipPath id="clip0_1_2">
<rect width="651" height="383" fill="white"/>
</clipPath>
</defs>
</svg>
