<svg width="588" height="402" viewBox="0 0 588 402" fill="none" xmlns="http://www.w3.org/2000/svg">
<g id="update" filter="url(#filter0_d_1_2)">
<path id="Vector" d="M530.246 53.9334H169.651C168.277 53.935 166.959 54.512 165.988 55.5378C165.016 56.5635 164.47 57.9543 164.468 59.4049V317.347C164.47 318.798 165.016 320.189 165.988 321.215C166.959 322.24 168.277 322.817 169.651 322.819H530.246C531.62 322.817 532.937 322.24 533.909 321.215C534.881 320.189 535.427 318.798 535.429 317.347V59.4049C535.427 57.9543 534.881 56.5635 533.909 55.5378C532.937 54.512 531.62 53.935 530.246 53.9334V53.9334ZM533.948 317.347C533.947 318.384 533.557 319.378 532.863 320.111C532.169 320.843 531.227 321.255 530.246 321.256H169.651C168.669 321.255 167.728 320.843 167.034 320.111C166.339 319.378 165.949 318.384 165.949 317.347V59.4049C165.949 58.3685 166.339 57.3747 167.034 56.6419C167.728 55.909 168.669 55.4971 169.651 55.4967H530.246C531.227 55.4971 532.169 55.909 532.863 56.6419C533.557 57.3747 533.947 58.3685 533.948 59.4049V317.347Z" fill="#3F3D56"/>
<path id="Vector_2" d="M534.688 75.8507H165.208V77.414H534.688V75.8507Z" fill="#3F3D56"/>
<path id="Vector_3" d="M177.796 70.348C180.25 70.348 182.239 68.2482 182.239 65.6581C182.239 63.068 180.25 60.9682 177.796 60.9682C175.342 60.9682 173.353 63.068 173.353 65.6581C173.353 68.2482 175.342 70.348 177.796 70.348Z" fill="#3F3D56"/>
<path id="Vector_4" d="M190.568 70.348C193.022 70.348 195.011 68.2482 195.011 65.6581C195.011 63.068 193.022 60.9682 190.568 60.9682C188.115 60.9682 186.126 63.068 186.126 65.6581C186.126 68.2482 188.115 70.348 190.568 70.348Z" fill="#3F3D56"/>
<path id="Vector_5" d="M203.341 70.348C205.795 70.348 207.784 68.2482 207.784 65.6581C207.784 63.068 205.795 60.9682 203.341 60.9682C200.888 60.9682 198.898 63.068 198.898 65.6581C198.898 68.2482 200.888 70.348 203.341 70.348Z" fill="#3F3D56"/>
<path id="box2" d="M377.254 107.867H312.096C310.82 107.869 309.597 108.406 308.695 109.358C307.793 110.31 307.285 111.601 307.283 112.948V181.732C307.285 183.079 307.793 184.37 308.695 185.322C309.597 186.274 310.82 186.81 312.096 186.813H377.254C378.53 186.81 379.753 186.274 380.655 185.322C381.557 184.37 382.065 183.079 382.067 181.732V112.948C382.065 111.601 381.557 110.31 380.655 109.358C379.753 108.406 378.53 107.869 377.254 107.867Z" fill="#6C63FF"/>
<path id="box3" d="M496.465 109.43H431.307C430.031 109.433 428.808 109.969 427.906 110.921C427.004 111.873 426.496 113.164 426.494 114.511V183.296C426.496 184.642 427.004 185.933 427.906 186.885C428.808 187.837 430.031 188.374 431.307 188.376H496.465C497.741 188.374 498.964 187.837 499.866 186.885C500.768 185.933 501.276 184.642 501.278 183.296V114.511C501.276 113.164 500.768 111.873 499.866 110.921C498.964 109.969 497.741 109.433 496.465 109.43V109.43Z" fill="#6C63FF"/>
<path id="box1" d="M265.448 186.813H200.289C199.013 186.811 197.79 186.276 196.888 185.323C195.985 184.371 195.478 183.079 195.476 181.732V112.948C195.478 111.601 195.985 110.309 196.888 109.357C197.79 108.404 199.013 107.868 200.289 107.867H265.448C266.724 107.868 267.947 108.404 268.85 109.357C269.752 110.309 270.259 111.601 270.261 112.948V181.732C270.259 183.079 269.752 184.371 268.85 185.323C267.947 186.276 266.724 186.811 265.448 186.813V186.813Z" fill="#6C63FF"/>
<path id="Vector_6" d="M150.121 384.638L158.799 381.826L152.657 345.153L139.848 349.302L150.121 384.638Z" fill="#A0616A"/>
<path id="Vector_7" d="M178.009 384.911L150.735 393.747L147.501 382.623L164.237 377.201C165.621 376.752 167.075 376.596 168.516 376.741C169.957 376.886 171.357 377.329 172.636 378.045C173.915 378.761 175.047 379.736 175.969 380.914C176.891 382.092 177.584 383.45 178.009 384.911V384.911V384.911Z" fill="#2F2E41"/>
<path id="Vector_8" d="M76.0788 384.849L85.1566 384.848L89.4748 347.885L76.0773 347.886L76.0788 384.849Z" fill="#A0616A"/>
<path id="Vector_9" d="M102.664 393.746L74.1338 393.747L74.1333 382.111L91.6402 382.11C93.0877 382.11 94.5211 382.411 95.8585 382.995C97.1959 383.58 98.4111 384.437 99.4347 385.518C100.458 386.598 101.27 387.881 101.824 389.293C102.378 390.704 102.663 392.217 102.664 393.746L102.664 393.746Z" fill="#2F2E41"/>
<path id="Vector_10" d="M75.4275 277.703C74.6817 277.013 74.0883 276.158 73.6892 275.2C73.29 274.241 73.0948 273.202 73.1172 272.155C73.1397 271.109 73.3793 270.08 73.8191 269.142C74.2589 268.203 74.8883 267.378 75.6629 266.724L82.7011 173.166L97.0144 176.941L85.5542 268.204C86.5084 269.651 86.9269 271.417 86.7303 273.167C86.5336 274.918 85.7356 276.531 84.4873 277.702C83.2391 278.873 81.6274 279.519 79.9576 279.52C78.2878 279.52 76.6759 278.873 75.4275 277.703V277.703Z" fill="#A0616A"/>
<path id="Vector_11" d="M104.091 136.879C114.134 136.879 122.277 128.283 122.277 117.681C122.277 107.078 114.134 98.4826 104.091 98.4826C94.0467 98.4826 85.9046 107.078 85.9046 117.681C85.9046 128.283 94.0467 136.879 104.091 136.879Z" fill="#A0616A"/>
<path id="heart" d="M88.2772 170.288C84.1737 164.341 84.0473 156.15 88.4676 150.462C91.3522 146.75 96.1774 143.78 104.233 143.78C125.706 143.78 133.851 161.757 133.851 161.757C133.851 161.757 142.736 178.953 137.553 194.586C132.37 210.219 132.37 211.783 132.37 211.783L98.3098 208.656C98.3098 208.656 104.056 193.155 88.2772 170.288Z" fill="#CCCCCC"/>
<path id="Vector_12" d="M77.774 185.849L85.1115 160.508C85.603 158.811 86.4415 157.249 87.5677 155.932C88.694 154.614 90.0805 153.574 91.6294 152.885C93.1782 152.196 94.8516 151.874 96.5312 151.943C98.2108 152.011 99.8557 152.468 101.35 153.281V153.281C103.941 154.698 105.926 157.103 106.9 160.007C107.875 162.912 107.767 166.099 106.598 168.922L97.2694 191.348L77.774 185.849Z" fill="#CCCCCC"/>
<path id="Vector_13" d="M131.011 200.882L159.888 358.775L144.339 363.464L106.577 259.506L89.5464 365.809L73.2567 368.154C73.2567 368.154 66.1112 227.501 97.6913 201.664L131.011 200.882Z" fill="#2F2E41"/>
<path id="hand" d="M173.192 200.474C172.928 200.805 172.69 201.158 172.479 201.529L135.801 203.406L128.738 180.645L116.475 186.798L128.017 220.698L173.378 211.334C174.444 212.562 175.839 213.419 177.377 213.79C178.916 214.161 180.525 214.029 181.99 213.412C183.456 212.794 184.709 211.72 185.582 210.332C186.455 208.945 186.908 207.309 186.879 205.644C186.85 203.978 186.342 202.361 185.422 201.008C184.501 199.655 183.213 198.629 181.727 198.068C180.241 197.507 178.628 197.436 177.104 197.866C175.579 198.296 174.215 199.206 173.192 200.474V200.474Z" fill="#A0616A"/>
<path id="Vector_14" d="M111.344 164.027C111.147 162.265 111.32 160.479 111.85 158.795C112.379 157.111 113.252 155.57 114.408 154.281C115.564 152.993 116.973 151.988 118.537 151.338C120.101 150.688 121.782 150.408 123.459 150.519V150.519C126.372 150.716 129.105 152.076 131.103 154.321C133.102 156.567 134.216 159.531 134.221 162.612V187.105L114.277 190.345L111.344 164.027Z" fill="#CCCCCC"/>
<path id="Vector_15" d="M108.09 137.053C105.36 137.04 103.255 134.006 103.377 131.128C103.499 128.249 105.331 125.717 107.537 124.02C109.744 122.324 112.332 121.291 114.792 120.044C117.253 118.797 119.692 117.241 121.211 114.847C122.129 113.281 122.677 111.504 122.809 109.667C122.941 107.83 122.653 105.987 121.969 104.292C120.555 100.902 118.128 98.0947 115.058 96.3001C110.499 93.4827 105.101 92.5818 99.941 93.7769C94.7806 94.972 90.236 98.1754 87.2125 102.749L84.0967 111.705C80.9218 115.735 80.4182 121.72 82.3699 126.54C84.3216 131.36 88.4771 134.987 93.1663 136.711C97.9239 138.325 103.017 138.486 107.858 137.176" fill="#2F2E41"/>
<path id="Vector_16" d="M91.4696 107.225C90.1302 104.959 87.8086 103.517 85.4085 102.671C82.628 101.692 79.6707 101.402 76.767 101.826C73.8633 102.25 71.0914 103.376 68.6673 105.116C66.2432 106.856 64.2321 109.163 62.7908 111.858C61.3495 114.552 60.5168 117.562 60.3576 120.652C60.1032 125.587 61.5672 130.414 62.4274 135.272C63.2877 140.131 63.4588 145.497 60.921 149.651C58.9881 152.815 55.7647 154.807 52.5831 156.508C49.9313 157.926 47.063 159.256 44.1027 158.974C41.1424 158.692 38.167 156.216 38.2456 153.08C37.2545 155.329 36.5854 157.721 36.26 160.177C36.0517 162.644 36.6277 165.306 38.3155 167.026C40.7686 169.526 44.6555 169.343 48.0269 168.804C55.3254 167.636 62.7159 165.446 68.4819 160.581C74.248 155.715 78.0741 147.703 76.5556 140.077C75.9213 136.891 74.4306 133.983 73.226 130.987C72.0215 127.99 71.081 124.712 71.6344 121.51C71.9619 119.86 72.6285 118.306 73.5871 116.958C74.5457 115.61 75.7729 114.501 77.1822 113.708C80.0322 112.144 83.2933 111.622 86.4545 112.224C88.527 112.583 91.1148 113.14 92.3441 111.342C92.6698 110.773 92.8362 110.118 92.8239 109.452C92.8117 108.787 92.6212 108.139 92.2747 107.584C91.5655 106.485 90.6623 105.54 89.6146 104.801" fill="#2F2E41"/>
</g>
<defs>
<filter id="filter0_d_1_2" x="-4" y="0" width="596" height="403" filterUnits="userSpaceOnUse" color-interpolation-filters="sRGB">
<feFlood flood-opacity="0" result="BackgroundImageFix"/>
<feColorMatrix in="SourceAlpha" type="matrix" values="0 0 0 0 0 0 0 0 0 0 0 0 0 0 0 0 0 0 127 0" result="hardAlpha"/>
<feOffset dy="4"/>
<feGaussianBlur stdDeviation="2"/>
<feComposite in2="hardAlpha" operator="out"/>
<feColorMatrix type="matrix" values="0 0 0 0 0 0 0 0 0 0 0 0 0 0 0 0 0 0 0.25 0"/>
<feBlend mode="normal" in2="BackgroundImageFix" result="effect1_dropShadow_1_2"/>
<feBlend mode="normal" in="SourceGraphic" in2="effect1_dropShadow_1_2" result="shape"/>
</filter>
</defs>
</svg>
